<?xml version="1.0" encoding="utf-8"?><svg xmlns="http://www.w3.org/2000/svg" xmlns:xlink="http://www.w3.org/1999/xlink"><style>:root>svg{display:none}:root>svg:target{display:block}</style><svg version="1.1" id="btn-play" x="0" y="0" viewBox="0 0 495.4 495.4" xml:space="preserve" xmlns="http://www.w3.org/2000/svg"><style>.aast0{fill:#ffae0b}.aast1{fill:#ff9907}.aast2{fill:#fff}</style><circle class="aast0" cx="247.7" cy="247.7" r="247.7"/><path class="aast1" d="M495.4 247.7c0 136.8-110.9 247.7-247.7 247.7-92.7 0-173.6-51-216-126.4 7.3-8.9 15.1-17.4 23.5-25.3 26.7-24.9 61.3-43.3 97.8-43.3 35 0 70.1 16.7 103.9 7.7 18.6-5 34.9-17.9 44-34.9 29.5-55.1-18.9-130.2 96.8-164 15.8-4.6 32.4-7.8 49-9.1 30.6 41.3 48.7 92.3 48.7 147.6z"/><path class="aast2" d="M409.5 238l-256-144c-5-2.8-11-2.7-15.9.1-4.9 2.9-7.9 8.1-7.9 13.8v288c0 5.7 3 10.9 7.9 13.8 2.5 1.4 5.3 2.2 8.1 2.2 2.7 0 5.4-.7 7.8-2l256-144c5-2.8 8.2-8.2 8.2-14 0-5.7-3.1-11-8.2-13.9z"/></svg><svg version="1.1" id="btn-play-bd" x="0" y="0" viewBox="0 0 512 512" xml:space="preserve" xmlns="http://www.w3.org/2000/svg"><style>.abst0{fill:#fff}</style><path class="abst0" d="M435.7 438.3c88.1-86.9 98.9-219.7 37.4-317.9-2.4-3.8-7.6-5.1-11.4-2.6-3.8 2.4-5.1 7.5-2.6 11.4 24 38.5 36.6 83 36.3 128.6-.9 132-109.2 238.7-241.2 237.8-132-.9-238.7-109.2-237.8-241.2.9-132 109.1-238.7 241.2-237.8 45.1.3 89 13.2 126.8 37.4 3.9 2.4 9 1.4 11.4-2.5s1.4-9-2.5-11.4C352.9 14.2 306 .3 257.8 0 116.3-1 1 112.7 0 254.2S112.7 511 254.2 512c68.4.5 132.9-25.7 181.5-73.7z"/></svg><svg viewBox="0 0 499.5 488.2" id="i-adjustable" xmlns="http://www.w3.org/2000/svg"><path d="M456.3 80.1c-17 0-31 13.9-31 31 0 1.3.1 2.6.3 3.9l-114.5 57.3c-9.5-12.1-24.1-19.9-40.6-19.9-28.5 0-51.6 23.1-51.6 51.6 0 11.4 3.6 21.8 9.8 30.3L170 298.4c-.3.4-.5.6-.8 1-3.7-1.7-7.9-2.5-12.3-2.5-5.9 0-11.4 1.7-16 4.5l-68.4-55.9c1.2-3.2 1.8-6.8 1.8-10.5 0-17-13.9-31-31-31s-31 13.9-31 31c0 8.6 5.9 19.2 9.3 22.1 4 3.7 10.7 8 18.7 8.8 1.9.1 1.9.1 3 .1 5.9 0 11.4-1.7 16-4.5l68.4 55.9c-1.2 3.2-1.8 6.8-1.8 10.5 0 17 13.9 31 31 31s31-13.9 31-31c0-5.3-1.3-10.3-3.7-14.6.4-.3.6-.6 1-.9l58.7-64.1c7.7 4.6 16.9 7.4 26.6 7.4 28.5 0 51.6-23.1 51.6-51.6 0-4.6-.6-9.2-1.8-13.4l114.5-57.3c5.5 5.4 13.2 8.6 21.4 8.6 17 0 31-13.9 31-31s-13.9-30.9-30.9-30.9zm-413 165.1c-5.7 0-10.3-4.6-10.3-10.3 0-5.7 4.6-10.3 10.3-10.3s10.3 4.6 10.3 10.3c.1 5.7-4.6 10.3-10.3 10.3zm113.6 92.9c-5.7 0-10.3-4.6-10.3-10.3 0-5.7 4.6-10.3 10.3-10.3s10.3 4.6 10.3 10.3c0 5.7-4.6 10.3-10.3 10.3zm113.6-103.2c-17 0-31-13.9-31-31s13.9-31 31-31 31 13.9 31 31-14 31-31 31zm185.8-113.5c-5.7 0-10.3-4.6-10.3-10.3s4.6-10.3 10.3-10.3c5.7 0 10.3 4.6 10.3 10.3s-4.6 10.3-10.3 10.3z"/><path d="M270.5 193.6c-2.7 0-5.4 1.2-7.4 3-1.9 1.9-3 4.6-3 7.4 0 2.7 1.2 5.4 3 7.4 1.9 1.9 4.5 3 7.4 3 2.7 0 5.4-1.2 7.4-3 1.9-1.9 3-4.6 3-7.4 0-2.7-1.2-5.4-3-7.4-2-2-4.7-3-7.4-3zM270.5 131.7c2.7 0 5.4-1.2 7.4-3.1 1.9-1.9 3-4.5 3-7.2s-1.2-5.4-3-7.4c-1.9-1.9-4.6-3-7.4-3s-5.4 1-7.4 3c-1.9 1.9-3 4.6-3 7.4s1.2 5.4 3 7.2c1.9 1.9 4.7 3.1 7.4 3.1zM270.5 90.4c2.7 0 5.4-1.2 7.4-3 1.9-1.9 3-4.6 3-7.4 0-2.7-1.2-5.4-3-7.4-1.9-1.9-4.6-3-7.4-3s-5.4 1-7.4 3-3 4.6-3 7.4c0 2.7 1.2 5.4 3 7.4 1.9 1.8 4.7 3 7.4 3zM270.5 49.1c2.7 0 5.4-1.2 7.4-3 1.9-1.9 3-4.6 3-7.4s-1.2-5.4-3-7.4c-1.8-1.9-4.6-3-7.4-3-2.7 0-5.4 1-7.4 3s-3 4.6-3 7.4 1.2 5.4 3 7.4c1.9 1.8 4.7 3 7.4 3zM270.5 400.1c-2.7 0-5.4 1.2-7.4 3-1.9 1.8-3 4.5-3 7.4 0 2.7 1.2 5.4 3 7.4 1.9 1.9 4.5 3 7.4 3 2.7 0 5.4-1.2 7.4-3 1.9-1.9 3-4.6 3-7.4 0-2.7-1.2-5.4-3-7.4-1.9-2-4.7-3-7.4-3zM270.5 358.8c-2.7 0-5.4 1.2-7.4 3-1.9 1.8-3 4.6-3 7.4 0 2.7 1.2 5.4 3 7.4 1.9 1.9 4.6 3 7.4 3s5.4-1.2 7.4-3c1.9-1.9 3-4.6 3-7.4 0-2.7-1.2-5.4-3-7.4-1.9-2-4.7-3-7.4-3zM270.5 317.5c-2.7 0-5.4 1.2-7.4 3s-3 4.5-3 7.4c0 2.7 1.2 5.4 3 7.2 1.9 1.9 4.5 3.1 7.4 3.1 2.7 0 5.4-1.2 7.4-3.1 1.9-1.9 3-4.5 3-7.2s-1.2-5.4-3-7.4c-1.9-2-4.7-3-7.4-3zM270.5 276.2c-2.7 0-5.4 1.2-7.4 3-1.9 1.9-3 4.6-3 7.4s1.2 5.4 3 7.2c1.9 1.9 4.5 3.1 7.4 3.1 2.7 0 5.4-1.2 7.4-3.1 1.9-1.9 3-4.5 3-7.2s-1.2-5.4-3-7.4c-2-2-4.7-3-7.4-3zM270.5 441.4c-2.7 0-5.4 1.2-7.4 3-1.9 1.9-3 4.5-3 7.4 0 2.7 1.2 5.4 3 7.2 1.9 1.9 4.6 3.1 7.4 3.1s5.4-1.2 7.4-3.1c1.9-1.9 3-4.5 3-7.2s-1.2-5.4-3-7.4c-2-1.9-4.7-3-7.4-3z"/></svg><svg viewBox="0 0 499.5 488.2" id="i-autoplay" xmlns="http://www.w3.org/2000/svg"><path d="M220.6 451.1c24.5 0 44.6-20 44.6-44.6v-35.7c0-3.9-3.2-7.1-7.1-7.1H145.5c-3.9 0-7.1 3.2-7.1 7.1v35.7c0 24.6 20 44.6 44.6 44.6h37.6zm-68-44.6v-28.6h98.5v28.6c0 16.8-13.7 30.5-30.5 30.5H183c-16.8 0-30.4-13.7-30.4-30.5z"/><path d="M481.2 205.6c0-22.5-18.3-40.8-40.8-40.8-22.5 0-40.9 18.3-40.9 40.8 0 19.9 14.3 36.5 33.2 40.1l-9.5 108.1c-1.4 15.9-14.5 27.8-30.4 27.8h-11.2V267.5c0-3.9-3.2-7.1-7.1-7.1s-7.1 3.2-7.1 7.1v64.3H265.2V214.6h102.3v20.2c0 3.9 3.2 7.1 7.1 7.1s7.1-3.2 7.1-7.1v-72.3c0-34.9-28.4-63.4-63.4-63.4h-53.1V72.4c0-3.9-3.2-7.1-7.1-7.1h-2.3V48.6c0-22.9-18.6-41.5-41.5-41.5h-29.7c-22.9 0-41.5 18.6-41.5 41.5v16.7h-2.3c-3.9 0-7.1 3.2-7.1 7.1v26.8h-52c-34.9 0-63.4 28.3-63.4 63.3v294.7c0 14.2 11.6 25.8 25.8 25.8h19.7c3.9 0 7.1-3.2 7.1-7.1 0-3.9-3.2-7.1-7.1-7.1H44.2c-6.5 0-11.7-5.3-11.7-11.7V346h335.1v111.3c0 6.5-5.3 11.7-11.7 11.7H96.7c-3.9 0-7.1 3.2-7.1 7.1 0 3.9 3.2 7.1 7.1 7.1h259.1c14.2 0 25.8-11.6 25.8-25.8V396h11.2c23.2 0 42.4-17.5 44.4-40.7l9.6-109.1c19.4-3.4 34.4-20.3 34.4-40.6zm-323.9-157c0-15.1 12.3-27.4 27.4-27.4h29.7c15.1 0 27.4 12.3 27.4 27.4v16.7h-84.5V48.6zm-9.4 30.8h103.3v19.7H147.9V79.4zm-115.5 83c0-27.1 22.1-49.3 49.3-49.3h236.6c27.1 0 49.3 22.1 49.3 49.3v38H32.4v-38zm0 52.2h102.3v117.3H32.4V214.6zm116.5 0h102.3v117.3H148.9V214.6zm291.4 17.8c-14.8 0-26.8-12-26.8-26.8s12-26.8 26.8-26.8 26.8 12 26.8 26.8c-.1 14.8-12.1 26.8-26.8 26.8z"/><path d="M228.1 224.9h-56.3c-3.9 0-7.1 3.2-7.1 7.1 0 3.9 3.2 7.1 7.1 7.1h49.3v17.4l-5.8 3.8c-14 9.4-22.4 25-22.4 41.8v14.4c0 3.9 3.2 7.1 7.1 7.1s7.1-3.2 7.1-7.1V302c0-12.2 6-23.4 16.1-30.1l8.9-5.9c2-1.3 3.2-3.5 3.2-5.9v-28.2c-.1-3.9-3.3-7-7.2-7zM331.7 260.1c-14 9.4-22.4 25-22.4 41.8v14.4c0 3.9 3.2 7.1 7.1 7.1s7.1-3.2 7.1-7.1v-14.4c0-12.2 6-23.4 16.1-30.1l8.9-5.9c2-1.3 3.2-3.5 3.2-5.9v-28.2c0-3.9-3.2-7.1-7.1-7.1h-56.3c-3.9 0-7.1 3.2-7.1 7.1s3.2 7.1 7.1 7.1h49.3v17.4l-5.9 3.8zM111.8 224.9H55.4c-3.9 0-7.1 3.2-7.1 7.1 0 3.9 3.2 7.1 7.1 7.1h49.3v17.4l-5.8 3.8c-14 9.4-22.4 25-22.4 41.8v14.4c0 3.9 3.2 7.1 7.1 7.1s7.1-3.2 7.1-7.1V302c0-12.2 6-23.4 16.1-30.1l8.9-5.9c2-1.3 3.2-3.5 3.2-5.9v-28.2c-.1-3.9-3.2-7-7.1-7z"/></svg><svg viewBox="0 0 485 484.5" id="i-betting-range" xmlns="http://www.w3.org/2000/svg"><path d="M151.9 12.6h14.2v92.5h-14.2V12.6zM319.6 12.6h14.2v92.5h-14.2V12.6zM235.7 0h14.2v93.5h-14.2V0zM371.3 420.8c-73.3 65.9-184.3 66-257.6 0l-2-1.8H14.2V281.2h47.4V267H0v166.2h106.2c78.1 68.5 194.5 68.4 272.5 0h48.2V419h-53.6l-2 1.8zM423.4 267v14.2h47.4V419h-29.6v14.2H485V267h-61.6z"/><path d="M416.8 366.1v-14.2h-35.6c14.1-24.6 21-51.8 21-79.1 0-88-71.6-159.6-159.6-159.6-47 0-91.4 20.6-121.9 56.5l10.8 9.2c27.7-32.7 68.2-51.5 111-51.5 80.2 0 145.4 65.2 145.4 145.4 0 27.5-7.7 54.9-23.4 79.1h-24.6c18-22.3 28.1-50.3 28.1-79.1 0-69.2-56.3-125.6-125.6-125.6s-125.6 56.3-125.6 125.6c0 28.8 10.1 56.8 28.1 79.1h-24.6c-15.7-24.2-23.4-51.6-23.4-79.1 0-29.9 9-58.6 26.1-83.1l-11.7-8.1c-35.8 51.3-37.6 117.9-7.7 170.3H67.3v14.2h349.5zM249.9 280c12.8.7 23 11.3 23 24.3v6.1c0 14.3-9.9 26.3-23.2 29.6.1-20.1.2-40.1.2-60zm-14.2-14.3c-13.1-.3-23.6-11.1-23.6-24.3v-6.1c0-14.4 10-26.5 23.5-29.6.1 19.9.1 39.9.1 60zm-104.6 7.1c0-61.4 50-111.4 111.4-111.4s111.4 50 111.4 111.4c0 30-11.7 58-33 79.1h-62.3c16.7-6.5 28.6-22.7 28.6-41.6v-6.1c0-20.8-16.6-37.8-37.2-38.5 0-20-.1-40-.2-59.9 12.8 3.2 23.1 14.6 23.1 30h14.2c0-23.3-16.8-41.1-37.4-44.5 0-4.3-.1-8.6-.1-12.9l-14.2.1c0 4.2.1 8.5.1 12.8-21.3 3.4-37.6 21.9-37.6 44.1v6.1c0 21 16.9 38.1 37.8 38.5 0 20-.1 40-.2 60-13-3.1-23.4-14.7-23.4-30h-14.2c0 19.6 12 35.6 28.6 42.1h-62.3c-21.4-21.3-33.1-49.3-33.1-79.3z"/><g><path d="M159.6 267h14.2v14.2h-14.2V267zM311.2 267h14.2v14.2h-14.2V267z"/></g></svg><svg viewBox="0 0 499.5 488.2" id="i-bonus-game" xmlns="http://www.w3.org/2000/svg"><path d="M493.1 367.2c-10.8-18.6-15.5-38.9-13.9-60.4.5-7.5-3.2-14.5-9.5-18.4s-14.2-3.7-20.5.1L399.9 319v-66h30.8c2.2 0 3.9 1.7 3.9 3.9v13.3c0 3.9 3.3 7.2 7.2 7.2 3.9 0 7.2-3.3 7.2-7.2v-13.3c0-10.1-8.3-18.4-18.4-18.4H207.5v-56.7h91v35.1c0 3.9 3.3 7.2 7.2 7.2s7.2-3.3 7.2-7.2v-35.1h4.9c10.3 0 18.6-8.4 18.6-18.6V130c0-10.3-8.4-18.6-18.6-18.6h-53.2l27.1-27.1c2.6-2.6 3.4-6.5 2-9.9-1.4-3.5-4.7-5.7-8.5-5.7h-25.4V43.4c0-3.7-2.2-7-5.7-8.5s-7.3-.7-10 2l-47.3 47.3c-7.4-5.8-16.7-9.2-26.8-9.2-10.1 0-19.4 3.5-26.8 9.2L96 36.8c-2.6-2.6-6.5-3.4-10-2s-5.7 4.7-5.7 8.5v25.4H55c-3.7 0-7 2.2-8.5 5.7-1.4 3.5-.7 7.3 2 10l27.1 27.1H22.4c-10.3-.1-18.6 8.3-18.6 18.6v33.2c0 10.3 8.4 18.6 18.6 18.6h4.9v45.9c0 3.9 3.3 7.2 7.2 7.2s7.2-3.3 7.2-7.2v-45.9h91v234.4h-91V256.6c0-3.9-3.3-7.2-7.2-7.2s-7.2 3.3-7.2 7.2v161.6c0 6.8 5.6 12.4 12.4 12.4h123.2v5.1c0 10.1 8.3 18.4 18.4 18.4h249.5c10.1 0 18.4-8.3 18.4-18.4v-41.4c26.6 2.7 25.4 2.6 27.1 2.6 6.6 0 12.9-3.4 16.5-9 3.8-6.3 4-14.2.3-20.7zm-315.8-14.6h82.3c.5 1.5 1.1 3.1 1.9 4.4 2.2 3.8 4.2 7.8 5.9 11.8h-90l-.1-16.2zm84.6-16.3c-.4.6-.8 1.2-1.1 1.8h-83.6v-81.3c0-2.2 1.7-3.9 3.9-3.9h173.5v73.6c-2.6 2.1-4.8 4.6-6.5 7.5 0 0 0 .1-.1.1l-67.6-6.8c-7.4-.6-14.5 2.8-18.5 9zm101.6 41.1l-5.3-22.9c-2.1-9 3.6-18.1 12.6-20.2 1.2-.3 2.5-.5 3.8-.5 3.1 0 6.1.9 8.8 2.6.8.5 1.5 1.1 2.2 1.6l.5.5c2.3 2.2 4 5.1 4.7 8.4l5.3 22.9c1.6 7.1-1.5 14.2-7.2 17.9-.2.1-.3.2-.5.3-1.5.9-3.2 1.5-4.9 1.9-8.9 2.1-18-3.6-20-12.5zm21.8-124.5v68.4c-5.2-1.9-10.8-2.4-16.2-1.4v-67h16.2zm-192.2-85.5h-45.9v-41.7h45.9v41.7zm129-37.4v33.2c0 2.3-1.9 4.2-4.2 4.2H207.5v-41.8h110.3c2.4.1 4.3 2 4.3 4.4zm-76.7-74v17.9c0 5 4.1 9.1 9.1 9.1h17.9l-28.3 28.3H213c-1-6.1-3.3-11.6-6.4-16.5L245.4 56zm-47 55.3h-56.5c3.2-12.6 14.7-22 28.3-22s25 9.4 28.2 22zM67.7 83h17.9c5 0 9.1-4.1 9.1-9.1V56l38.8 38.8c-3.2 4.9-5.5 10.5-6.4 16.5H96L67.7 83zm-45.3 84.4c-2.3 0-4.2-1.9-4.2-4.2V130c0-2.3 1.9-4.2 4.2-4.2h110.3v41.7l-110.3-.1zm124.8 248.8V181.8H193v56.7h-11.9c-10.1 0-18.4 8.3-18.4 18.4v159.3h-15.5zm30.1 19.5v-52.5h94.9c2 7.7 3.2 15.6 3.4 23.5.1 3.9 3.3 7 7.2 7h.2c3.9-.1 7.1-3.4 7-7.4-.3-11.1-2-21.8-5.3-32.2-.1-.3-.2-.6-.3-.8-2.6-8.1-6.1-16-10.6-23.6-.7-1.2-.9-2.3-.8-3.3 0-.2.1-.3.1-.5.2-.9.6-1.6.8-2 .5-.8 2-2.7 5-2.4l64.5 6.4c-.3 3.2 0 6.3.8 9.4l5.3 22.9c.8 3.2 1.9 6.1 3.5 8.8l-55.2 34.3c-1.1.7-2.1.9-3.3.8-3.9-.5-7.5 2.4-8 6.3s2.4 7.5 6.3 8c4.3.5 8.6-.5 12.5-2.9l49.3-30.5v34.4H181.2c-2.2.2-3.9-1.5-3.9-3.7zm191.8 3.9v-36.8c3.5 1.2 7 1.9 10.7 1.9 1.8 0 3.7-.2 5.6-.5v35.4h-16.3zm65.4-3.9c0 2.2-1.7 3.9-3.9 3.9h-30.8v-42c2.5-2.1 4.8-4.6 6.5-7.5 0 0 0-.1.1-.1l28.2 2.8-.1 42.9zm46-55.6c-.5.8-2 2.7-5 2.4l-32.8-3.3c-.2 0-.3 0-.5-.1l-31.2-3.2c.2-3.2 0-6.3-.8-9.4l-5.3-22.9c-.8-3.2-1.9-6.1-3.5-8.7l55.2-34.1c2.5-1.5 4.6-.6 5.5 0 .9.5 2.8 2 2.6 5.1-1.7 24.4 3.7 47.5 15.9 68.6 1.5 2.5.4 4.7-.1 5.6z"/></svg><svg viewBox="0 0 498.5 487.2" id="i-both-ways" xmlns="http://www.w3.org/2000/svg"><path d="M82.6 407.7l84.7-203.1c3.8 1.9 8 2.9 12.2 2.9 12.9.1 24.1-8.7 27.2-21.1s-2.5-25.5-13.9-31.6-25.3-3.7-34 5.7c-8.7 9.5-9.8 23.7-2.7 34.4L69.3 403.4c-.6-.1-1.1-.1-1.7-.1-14-.1-26 10.2-28 24s6.4 27.1 19.8 31.1 27.7-2.5 33.6-15.3c5.9-12.7 1.5-27.8-10.4-35.4zm96.9-242.1c7.7 0 14 6.2 14 14 0 7.7-6.2 14-14 14s-14-6.2-14-14 6.3-14 14-14zM67.7 445.2c-7.7 0-14-6.2-14-14s6.2-14 14-14 14 6.2 14 14-6.3 14-14 14zM415.6 90.9l-77.9 209.9c-12.9-5.7-28-1.1-35.4 10.9-7.4 12-4.8 27.6 6.1 36.6s26.8 8.5 37-1.2c10.3-9.6 11.9-25.3 3.8-36.8l79.7-214.8c.8.1 1.5.2 2.3.2 13.9 0 25.7-10.2 27.7-23.9s-6.2-26.9-19.5-31c-13.3-4.1-27.5 2.2-33.5 14.8-6 12.6-1.8 27.6 9.7 35.3zm-89.3 249.5c-7.7 0-14-6.2-14-14 0-7.7 6.2-14 14-14 7.7 0 14 6.2 14 14 0 7.7-6.3 14-14 14zM431.2 53.7c7.7 0 14 6.2 14 14 0 7.7-6.2 14-14 14-7.7 0-14-6.2-14-14s6.3-14 14-14z"/><path d="M431.2 403.3c-9.3 0-18 4.6-23.2 12.4l-210-78c3.7-8.2 3.2-17.7-1.5-25.5l108.7-108.7c4.3 2.6 9.2 3.9 14.1 4 12 0 22.6-7.6 26.5-18.9 3.9-11.3.1-23.9-9.4-31.2-9.5-7.4-22.5-7.8-32.6-1.2L95.5 69.4c0-.6.1-1.1.1-1.7.1-14-10.2-26-24-28S44.5 46 40.5 59.5 43 87.2 55.7 93.1c12.7 5.8 27.8 1.4 35.4-10.4l203.1 84.7c-4.2 8.3-3.9 18.3 1.1 26.3L186.6 302.3c-4.3-2.6-9.1-3.9-14.1-4-12.1-.1-22.8 7.7-26.7 19.2-3.8 11.5.2 24.1 9.9 31.3 9.7 7.2 23 7.3 32.8.3l214.8 79.8c-.1.8-.2 1.5-.2 2.3 0 15.5 12.5 27.9 27.9 27.9 15.5 0 27.9-12.5 27.9-27.9.2-15.4-12.3-27.9-27.7-27.9zM67.7 81.7c-7.7 0-14-6.2-14-14 0-7.7 6.2-14 14-14s14 6.2 14 14c-.1 7.8-6.3 14-14 14zm251.6 83.9c7.7 0 14 6.2 14 14 0 7.7-6.2 14-14 14-7.7 0-14-6.2-14-14s6.3-14 14-14zM172.5 340.4c-7.7 0-14-6.2-14-14 0-7.7 6.2-14 14-14 7.7 0 14 6.2 14 14 0 7.7-6.2 14-14 14zm258.7 104.8c-7.7 0-14-6.2-14-14s6.2-14 14-14c7.7 0 14 6.2 14 14s-6.3 14-14 14z"/></svg><svg viewBox="0 0 436.767 436.767" id="i-casino-coin" xmlns="http://www.w3.org/2000/svg"><path d="M218.384 0c120.61 0 218.384 97.774 218.384 218.384s-97.774 218.384-218.384 218.384S0 338.994 0 218.384C0 97.774 97.774 0 218.384 0z" fill="#f4b844"/><circle cx="218.384" cy="218.384" r="164.571" fill="#fedb41"/><path d="M218.384 202.188c-15.581 0-28.212-12.631-28.212-28.212s12.631-28.212 28.212-28.212 28.212 12.631 28.212 28.212c0 5.771 4.678 10.449 10.449 10.449s10.449-4.678 10.449-10.449c-.207-22.93-16.255-42.665-38.661-47.543v-12.539c0-5.771-4.678-10.449-10.449-10.449s-10.449 4.678-10.449 10.449v12.539c-26.274 6.731-42.117 33.488-35.385 59.762 5.406 21.101 24.066 36.119 45.834 36.891 15.581 0 28.212 12.631 28.212 28.212s-12.631 28.212-28.212 28.212-28.212-12.631-28.212-28.212c0-5.771-4.678-10.449-10.449-10.449s-10.449 4.678-10.449 10.449c.01 23.001 16.146 42.844 38.661 47.543v18.808c0 5.771 4.678 10.449 10.449 10.449s10.449-4.678 10.449-10.449v-18.808c26.274-6.731 42.117-33.488 35.385-59.762-5.406-21.101-24.066-36.12-45.834-36.891z" fill="#f4b844"/></svg><svg version="1.1" id="i-casino-label" x="0" y="0" viewBox="0 0 112.4 138.9" xml:space="preserve" xmlns="http://www.w3.org/2000/svg"><style>.aist0{fill:url(#aiSVGID_1_)}.aist1{fill:url(#aiSVGID_2_)}.aist2{fill:url(#aiSVGID_3_)}</style><linearGradient id="aiSVGID_1_" gradientUnits="userSpaceOnUse" x1="-827.474" y1="21.364" x2="-848.843" y2="21.364" gradientTransform="matrix(0 1 1 0 -13.22 976.966)"><stop offset="0" stop-color="#b71c1c"/><stop offset=".111" stop-color="#c22525"/><stop offset=".306" stop-color="#df3b3d"/><stop offset=".483" stop-color="#ff5458"/><stop offset=".514" stop-color="#fa4e51"/><stop offset=".726" stop-color="#db2727"/><stop offset="1" stop-color="#8c1616"/></linearGradient><path class="aist0" d="M0 133s1.8 5.8 16.3 5.8v-17.6H0V133z"/><linearGradient id="aiSVGID_2_" gradientUnits="userSpaceOnUse" x1="-173.238" y1="21.364" x2="-194.607" y2="21.364" gradientTransform="rotate(-90 -98.538 -85.317)"><stop offset="0" stop-color="#b71c1c"/><stop offset=".111" stop-color="#c22525"/><stop offset=".306" stop-color="#df3b3d"/><stop offset=".483" stop-color="#ff5458"/><stop offset=".514" stop-color="#fa4e51"/><stop offset=".726" stop-color="#db2727"/><stop offset="1" stop-color="#8c1616"/></linearGradient><path class="aist1" d="M0 5.7S1.8 0 16.3 0v17.6H0V5.7z"/><linearGradient id="aiSVGID_3_" gradientUnits="userSpaceOnUse" x1="-7.436" y1="69.438" x2="119.869" y2="69.438" gradientTransform="rotate(-90 56.217 69.438)"><stop offset=".034" stop-color="#f94141"/><stop offset=".167" stop-color="#f94141"/></linearGradient><path class="aist2" d="M0 5.8V133.1c2.8-5.1 11.7-6.4 17.6-6.6h75.3c12.3-15.7 19.6-35.5 19.6-57s-7.3-41.3-19.6-57H17.6C11.7 12.2 2.8 10.9 0 5.8z"/></svg><svg viewBox="0 0 496 496" id="i-fancy-full" xmlns="http://www.w3.org/2000/svg"><path d="M248 0C111.033 0 0 111.033 0 248c.154 136.903 111.097 247.846 248 248 136.967 0 248-111.033 248-248S384.967 0 248 0zm0 480C119.87 480 16 376.13 16 248c.146-128.07 103.93-231.854 232-232 128.13 0 232 103.87 232 232S376.13 480 248 480z"/><path d="M400 240H256V96a8 8 0 0 0-16 0v144H96a8 8 0 0 0 0 16h144v144a8 8 0 0 0 16 0V256h144a8 8 0 0 0 0-16z"/></svg><svg viewBox="0 0 498.5 487.2" id="i-free-spins" xmlns="http://www.w3.org/2000/svg"><path d="M488.5 196.6c0 9.4-7.6 17.1-17.1 17.1s-17.1-7.6-17.1-17.1 7.6-17.1 17.1-17.1 17.1 7.7 17.1 17.1zM113 375.8c0 4.7-3.8 8.5-8.5 8.5s-8.5-3.8-8.5-8.5 3.8-8.5 8.5-8.5 8.5 3.8 8.5 8.5zM147.2 375.8c0 4.7-3.8 8.5-8.5 8.5s-8.5-3.8-8.5-8.5 3.8-8.5 8.5-8.5c4.6 0 8.5 3.8 8.5 8.5zM181.3 375.8c0 4.7-3.8 8.5-8.5 8.5s-8.5-3.8-8.5-8.5 3.8-8.5 8.5-8.5 8.5 3.8 8.5 8.5zM215.4 375.8c0 4.7-3.8 8.5-8.5 8.5s-8.5-3.8-8.5-8.5 3.8-8.5 8.5-8.5 8.5 3.8 8.5 8.5zM249.6 375.8c0 4.7-3.8 8.5-8.5 8.5s-8.5-3.8-8.5-8.5 3.8-8.5 8.5-8.5 8.5 3.8 8.5 8.5zM283.7 375.8c0 4.7-3.8 8.5-8.5 8.5s-8.5-3.8-8.5-8.5 3.8-8.5 8.5-8.5 8.5 3.8 8.5 8.5zM317.8 375.8c0 4.7-3.8 8.5-8.5 8.5s-8.5-3.8-8.5-8.5 3.8-8.5 8.5-8.5 8.5 3.8 8.5 8.5zM352 375.8c0 4.7-3.8 8.5-8.5 8.5s-8.5-3.8-8.5-8.5 3.8-8.5 8.5-8.5c4.6 0 8.5 3.8 8.5 8.5zM386.1 375.8c0 4.7-3.8 8.5-8.5 8.5s-8.5-3.8-8.5-8.5 3.8-8.5 8.5-8.5 8.5 3.8 8.5 8.5z"/><path d="M480 375.8V220.7c11.8-4.2 18.8-16.2 16.7-28.5-2.1-12.3-12.8-21.3-25.2-21.3-12.5 0-23.1 9-25.2 21.3s4.9 24.3 16.7 28.5V342c-7.3-5.6-16.3-8.7-25.6-8.8h-8.5v-85.3c-.2-89.6-72.8-162.1-162.3-162.2h-51.2c-89.5.1-162 72.6-162.1 162.1v160L67 418.5H437.2c23.7 0 42.7-19.1 42.8-42.7zm-8.6-187.7c4.7 0 8.5 3.8 8.5 8.5s-3.8 8.5-8.5 8.5-8.5-3.8-8.5-8.5 3.8-8.5 8.5-8.5zm-8.5 187.7c0 14.1-11.5 25.6-25.6 25.6h-8.5v-51.2h8.5c14.1 0 25.6 11.5 25.6 25.6zm-247.5-273h51.2c80.1.1 145 65 145.1 145.1v85.3h-85.3V186.5c0-13.2-10.7-24-24-24H179.7c-13.2 0-24 10.7-24 24v146.7H70.4v-85.3c.1-80.1 65-145 145-145.1zm93.9 230.4H172.8V186.5c0-3.8 3.1-6.9 6.9-6.9h122.7c3.8 0 6.9 3.1 6.9 6.9v146.7zm-238.9 17h341.3v51.2H70.4v-51.2zM53.3 128.4c3.5 0 6.6-2.1 7.9-5.3 1.3-3.2.6-6.9-1.8-9.3L42.3 96.7c-3.3-3.2-8.7-3.2-12 .1-3.3 3.3-3.3 8.6-.1 12l17.1 17.1c1.6 1.6 3.7 2.5 6 2.5zM36.2 154c0-4.7-3.8-8.5-8.5-8.5H10.6c-4.7 0-8.5 3.8-8.5 8.5s3.8 8.5 8.5 8.5h17.1c4.7 0 8.5-3.8 8.5-8.5z"/><path d="M369 316.1c10.1 0 19.3-5.9 23.4-15.1s2.4-20-4.5-27.5c8.9-9.6 8.9-24.5 0-34.1 9.3-10.2 8.8-26-1.1-35.6-9.9-9.6-25.7-9.6-35.6 0-9.9 9.6-10.4 25.4-1.1 35.6-8.9 9.6-8.9 24.5 0 34.1-6.8 7.5-8.6 18.3-4.5 27.5s13.3 15.1 23.4 15.1zm0-17.1c-4.7 0-8.5-3.8-8.5-8.5s3.8-8.5 8.5-8.5 8.5 3.8 8.5 8.5c.1 4.7-3.8 8.5-8.5 8.5zm-8.5-42.6c0-4.7 3.8-8.5 8.5-8.5s8.5 3.8 8.5 8.5-3.8 8.5-8.5 8.5-8.5-3.8-8.5-8.5zm8.5-42.7c4.7 0 8.5 3.8 8.5 8.5s-3.8 8.5-8.5 8.5-8.5-3.8-8.5-8.5 3.8-8.5 8.5-8.5zM113 316.1c10.1 0 19.3-5.9 23.4-15.1s2.4-20-4.5-27.5c8.9-9.6 8.9-24.5 0-34.1 9.3-10.2 8.8-26-1.1-35.6-9.9-9.6-25.7-9.6-35.6 0-9.9 9.6-10.4 25.4-1.1 35.6-8.9 9.6-8.9 24.5 0 34.1-6.8 7.5-8.6 18.3-4.5 27.5s13.3 15.1 23.4 15.1zm0-17.1c-4.7 0-8.5-3.8-8.5-8.5s3.8-8.5 8.5-8.5 8.5 3.8 8.5 8.5c.1 4.7-3.8 8.5-8.5 8.5zm-8.5-42.6c0-4.7 3.8-8.5 8.5-8.5s8.5 3.8 8.5 8.5-3.8 8.5-8.5 8.5-8.5-3.8-8.5-8.5zm8.5-42.7c4.7 0 8.5 3.8 8.5 8.5s-3.8 8.5-8.5 8.5-8.5-3.8-8.5-8.5 3.8-8.5 8.5-8.5zM258.1 239.3c-6.1.1-12 2-17.1 5.5-1.5 1-3.1 1.8-4.7 2.4-1.2-2.6-1.5-5.6-.7-8.5 2.8-10 12.1-16.8 22.4-16.5 2.3 0 4.4-.9 6-2.5s2.5-3.8 2.4-6c0-4.7-3.9-8.5-8.6-8.5-18.2-.2-34.3 12-38.9 29.7-1.2 4.8-1.2 9.7-.1 14.5-12 1.7-20.8 12-20.6 24.1 0 17.5 20.7 34.1 42.7 34.1 21.2 0 42.7-11.7 42.7-34.1.1-22.7-8.5-34.2-25.5-34.2zM241 290.5c-12.9 0-25.6-9.8-25.6-17.1 0-2.3 0-8.5 17.1-8.5 6.2-.1 12.2-2 17.3-5.5 2.4-1.8 5.3-2.9 8.3-3 5.9 0 8.5 2.5 8.5 17.1 0 13.4-16.7 17-25.6 17z"/></svg><svg version="1.1" id="i-fullscreen" x="0" y="0" viewBox="0 0 490 490" xml:space="preserve" xmlns="http://www.w3.org/2000/svg"><style>.alst0{fill:#d1d4e6}</style><path class="alst0" d="M181.8 294l-161 161v-50.4c0-5.5-4.5-10-10-10s-10 4.5-10 10v75.3c0 5.5 4.5 10 10 10H86c5.5 0 10-4.5 10-10s-4.5-10-10-10H34.3L196 308.2c3.9-3.9 3.9-10.3 0-14.2-3.9-4-10.2-4-14.2 0zM489.3 479.3v-74.6c0-5.5-4.5-10-10-10s-10 4.5-10 10V455L308.2 294c-3.9-3.9-10.3-3.9-14.2 0-3.9 3.9-3.9 10.3 0 14.2L455.8 470H404c-5.5 0-10 4.5-10 10s4.5 10 10 10h75.3c5.5 0 10-4.5 10-10v-.7z"/><g><path class="alst0" d="M181.8 196L20.8 35v50.3c0 5.5-4.5 10-10 10s-10-4.5-10-10V10c0-5.5 4.5-10 10-10H86c5.5 0 10 4.5 10 10s-4.5 10-10 10H34.3L196 181.8c3.9 3.9 3.9 10.3 0 14.2-3.9 4-10.2 4-14.2 0zM489.3 10.7v74.6c0 5.5-4.5 10-10 10s-10-4.5-10-10V35L308.2 196c-3.9 3.9-10.3 3.9-14.2 0-3.9-3.9-3.9-10.3 0-14.2L455.7 20.1H404c-5.5 0-10-4.5-10-10s4.5-10 10-10h75.3c5.5 0 10 4.5 10 10v.6z"/></g></svg><svg viewBox="0 0 498.5 487.2" id="i-gamble" xmlns="http://www.w3.org/2000/svg"><path d="M408.2 158.7h-59.9l24.4-90.9c1.8-6.8-2.2-13.9-9.1-15.7l-65.5-17.6V13.3c0-7.1-5.8-12.8-12.8-12.8H198c-7.1 0-12.8 5.8-12.8 12.8v22.8l-74 42.7c-6.1 3.5-8.2 11.4-4.7 17.5l36 62.4H69.7c-6.9 0-12.5 5.6-12.5 12.5v41c0 6.9 5.6 12.5 12.5 12.5H75v249.5c0 6.9 5.6 12.5 12.5 12.5h303c6.9 0 12.5-5.6 12.5-12.5V308.7c0-4.1-3.4-7.5-7.5-7.5s-7.5 3.4-7.5 7.5v163H90v-247h44.4c4.1 0 7.5-3.4 7.5-7.5s-3.4-7.5-7.5-7.5H72.2v-36h333.5v36H170.3c-4.1 0-7.5 3.4-7.5 7.5s3.4 7.5 7.5 7.5h217.6v48c0 4.1 3.4 7.5 7.5 7.5s7.5-3.4 7.5-7.5v-48h5.3c6.9 0 12.5-5.6 12.5-12.5v-41c0-6.9-5.6-12.5-12.5-12.5zM357.6 66l-24.8 92.7h-9.1c-.1-.3-.1-.7-.2-1l20.1-75c.7-2.7.4-5.5-1.1-8-1.4-2.4-3.7-4.2-6.4-4.9L298 59.6V50l59.6 16zM313 139c-4.2-4-9.2-6.9-14.9-8.5v-16.4c1.4 1.3 3.2 2.1 5.1 2.1 2 0 3.9-.8 5.3-2.2 1.4-1.4 2.2-3.3 2.2-5.3s-.8-3.9-2.2-5.3-3.3-2.2-5.3-2.2c-1.9 0-3.8.8-5.1 2.1V75.2l29.9 8-15 55.8zm-14.9 7.6c3.5 1.8 6.4 4.6 8.4 8.1.7 1.3 1.3 2.6 1.8 4h-10.2v-12.1zm-15-131.1v143.2h-9.2v-12.8c2.5-5 4-10.6 4-16.5s-1.4-11.6-4-16.5V35.2c0-5.8-4.7-10.5-10.5-10.5h-43.5c-5.8 0-10.5 4.7-10.5 10.5v13.3l-5-8.7c-1-1.8-2.5-3.3-4.2-4.4v-20l82.9.1zm-24.2 82c-5.1-2.8-11-4.4-17.3-4.4-2.1 0-4.2.2-6.2.5l-11.1-19.2V39.7h34.5v57.8h.1zm4 31.9c0 3.1-.7 6-1.8 8.6l-17.2-29.8c10.6 1.2 19 10.2 19 21.2zM120.6 90.7l71.9-41.5 63.2 109.5h-7.3c-.8-2.8-2-5.6-3.5-8.2-2.9-5-7-9.2-11.7-12.3l-38.8-67.3c-1.9-3.2-5.4-5.2-9.1-5.2-1.8 0-3.6.5-5.2 1.4l-37.7 21.8c-2.4 1.4-4.2 3.7-4.9 6.4-.7 2.7-.4 5.5 1 8l32.1 55.5h-10.7l-39.3-68.1zm62 58.9l-28.9-50.1 29.9-17.3 28.9 50.1c-6 .2-11.9 1.8-17.1 4.8-5.5 3.2-9.8 7.5-12.8 12.5zm20.2.6c3.2-1.9 6.9-2.9 10.6-2.9 7.6 0 14.6 4.1 18.4 10.6.1.2.3.5.4.7h-37.6c1.9-3.3 4.6-6.3 8.2-8.4z"/><path d="M317.5 258.1c-8.9-8.9-20.8-13.9-33.5-13.9-12.6 0-24.5 4.9-33.5 13.9L239 269.6l-11.5-11.5c-8.9-8.9-20.8-13.9-33.5-13.9-12.6 0-24.5 4.9-33.5 13.9-18.4 18.5-18.4 48.5 0 66.9l67.4 67.4c2.9 2.9 6.8 4.6 11 4.6s8.1-1.6 11-4.6l67.4-67.4c18.6-18.5 18.6-48.5.2-66.9zm-10.6 56.3l-67.4 67.4c-.1.1-.2.2-.4.2s-.3-.1-.4-.2l-67.4-67.4c-12.6-12.6-12.6-33.1 0-45.7 6.1-6.1 14.2-9.5 22.9-9.5 8.6 0 16.8 3.4 22.9 9.5l16.8 16.8c2.9 2.9 7.7 2.9 10.6 0l16.8-16.8c6.1-6.1 14.2-9.5 22.9-9.5s16.8 3.4 22.9 9.5c12.4 12.6 12.4 33.1-.2 45.7z"/><path d="M209.9 291.6c-4.1 0-7.5 3.4-7.5 7.5v6.9c0 4.1 3.4 7.5 7.5 7.5s7.5-3.4 7.5-7.5v-6.9c0-4.2-3.3-7.5-7.5-7.5zM268.2 291.6c-4.1 0-7.5 3.4-7.5 7.5v6.9c0 4.1 3.4 7.5 7.5 7.5s7.5-3.4 7.5-7.5v-6.9c0-4.2-3.3-7.5-7.5-7.5zM252.8 323c-4.1 0-7.5 3.4-7.5 7.5 0 3.4-2.8 6.2-6.2 6.2s-6.2-2.8-6.2-6.2c0-4.1-3.4-7.5-7.5-7.5s-7.5 3.4-7.5 7.5c0 11.7 9.5 21.2 21.2 21.2s21.2-9.5 21.2-21.2c0-4.2-3.4-7.5-7.5-7.5zM299.9 437.2h-52.5c-4.1 0-7.5 3.4-7.5 7.5s3.4 7.5 7.5 7.5h52.5c12.3 0 22.3-10 22.3-22.3s-10-22.2-22.3-22.2H178.2c-12.3 0-22.2 10-22.2 22.2s10 22.3 22.2 22.3h33.2c4.1 0 7.5-3.4 7.5-7.5s-3.4-7.5-7.5-7.5h-33.2c-4 0-7.2-3.3-7.2-7.3s3.3-7.2 7.2-7.2h121.7c4 0 7.3 3.3 7.3 7.2 0 4.1-3.3 7.3-7.3 7.3z"/></svg><svg viewBox="0 0 482 454" id="i-game-desktop" xmlns="http://www.w3.org/2000/svg"><path d="M474 367h-13V122.6c0-26.5-21.7-47.6-48.1-47.6H352V34.1C352 15.4 337.3 0 318.6 0h-137c-13.6.1-25.8 8.3-31 20.9-12.6 5.4-20.7 17.7-20.6 31.4V75H69.1C42.7 75 21 96.1 21 122.6V367H8c-4.4 0-8 3.6-8 8v30.8c0 26.5 21.5 48.1 48 48.2h386c26.5-.1 48-21.7 48-48.2V375c0-4.4-3.6-8-8-8zM412.9 91c17.6 0 32.1 14 32.1 31.6V367h-24V124.9c.1-2.1-.7-4.1-2.1-5.6s-3.4-2.3-5.5-2.3H352V91h60.9zM337 254.1c0 9.9-8 17.9-17.9 17.9H181.9c-9.9 0-17.9-8-17.9-17.9V33.9c0-9.9 8-17.9 17.9-17.9h137.3c9.9 0 17.9 8 17.9 17.9v220.2h-.1zM163.4 306h137.1c13.6 0 25.8-8.3 31-20.8 12.5-5.3 20.6-17.6 20.6-31.3V133h53v234H299.7c-2.2 0-4.4.9-5.9 2.6l-8.1 8.9c-6.1 6.6-14.6 10.4-23.5 10.4h-42.3c-9-.1-17.5-3.8-23.5-10.4l-8.1-8.9c-1.5-1.7-3.6-2.6-5.9-2.7H77V133h53v139.1c0 18.7 14.7 33.9 33.4 33.9zM37 122.6C37 105 51.5 91 69.1 91H130v26H68.6c-2.1 0-4.1.8-5.5 2.3s-2.2 3.5-2.1 5.6V367H37V122.6zm429 283.2c0 17.7-14.3 32.1-32 32.2H48c-17.7-.1-32-14.5-32-32.2V383h162.8l5.7 6.4c9.1 9.9 21.9 15.6 35.3 15.6h42.3c13.4-.1 26.2-5.7 35.3-15.6l5.7-6.4H466v22.8zM245.9 194.6c.1.1.3.1.4.1 2.4.9 5.1.9 7.5 0 .2-.1.3-.1.5-.2 18.9-7.7 33.7-19 42.6-32.8 8.2-12.5 11.3-26.6 8.7-39.7v-.1c-3.6-17.8-16.6-29.3-33.2-29.3-7.2 0-14.8 2.3-22.3 6.8-7.5-4.6-15.1-7-22.5-7-16.7 0-29.7 11.6-33.1 29.6-4.6 24.2 9.5 56 51.4 72.6zm-35.7-69.5c2-10.4 8.5-16.6 17.4-16.6 5.4 0 11.5 2.4 17.7 7 2.8 2.1 6.6 2.1 9.5.1 6.1-4.4 12.4-6.9 17.7-6.9 8.8 0 15.5 6.3 17.5 16.4 3.3 17.1-7.8 40.2-39.9 53.8-32.1-13.3-43.2-36.5-39.9-53.8z"/></svg><svg viewBox="0 0 448.2 480" id="i-game-mob" xmlns="http://www.w3.org/2000/svg"><path d="M240 448H64c-4.4 0-8-3.6-8-8s3.6-8 8-8h176c4.4 0 8 3.6 8 8s-3.6 8-8 8zM248 248h-8v-8c0-4.4-3.6-8-8-8s-8 3.6-8 8v8h-8c-4.4 0-8 3.6-8 8s3.6 8 8 8h8v8c0 4.4 3.6 8 8 8s8-3.6 8-8v-8h8c4.4 0 8-3.6 8-8s-3.6-8-8-8zM368 248h16v16h-16v-16zM352 232h16v16h-16v-16zM352 264h16v16h-16v-16zM336 248h16v16h-16v-16z"/><path d="M360 200h-40c0-10.1-6.4-19.1-16-22.5V136c0-4.4-3.6-8-8-8s-8 3.6-8 8v41.5c-9.6 3.4-16 12.4-16 22.5h-40c-30.9 0-56 25-56 56 0 30.9 25 56 56 56 21.6 0 41.4-12.4 50.6-32h26.9c13.3 27.9 46.7 39.9 74.6 26.6s39.9-46.7 26.6-74.6c-9.3-19.6-29.1-32-50.7-32zm-64-8c4.4 0 8 3.6 8 8h-16c0-4.4 3.6-8 8-8zm64 104c-16.9 0-32-10.7-37.6-26.6-1.1-3.2-4.1-5.4-7.6-5.4h-37.6c-3.4 0-6.4 2.2-7.6 5.4-7.4 20.8-30.2 31.7-51.1 24.3-20.8-7.4-31.7-30.2-24.3-51.1 5.7-16 20.8-26.7 37.8-26.6h128c22.1 0 40 17.9 40 40s-17.9 40-40 40z"/><path d="M280 232h16v16h-16v-16zM304 232h16v16h-16v-16z"/><path d="M304 88.4V40c0-22.1-17.9-40-40-40H40C17.9 0 0 17.9 0 40v400c0 25 12 40 32 40h224c22.2 0 48-17.5 48-40v-48.4c83.7-4.2 148.2-75.5 144-159.2-4-77.9-66.2-140.1-144-144zM72 16h160v24c0 4.4-3.6 8-8 8H80c-4.4 0-8-3.6-8-8V16zm184 448H32c-4 0-16 0-16-24V40c0-13.3 10.7-24 24-24h16v24c0 13.3 10.7 24 24 24h144c13.3 0 24-10.7 24-24V16h16c13.3 0 24 10.7 24 24v48.4c-83.7 4.2-148.2 75.5-144 159.2 3.9 77.8 66.1 140 144 144V440c0 12.4-18 24-32 24zm40-88c-75.1 0-136-60.9-136-136s60.9-136 136-136 136 60.9 136 136c-.1 75.1-60.9 135.9-136 136z"/></svg><svg version="1.1" id="i-home" x="0" y="0" viewBox="0 0 511.9 504" xml:space="preserve" xmlns="http://www.w3.org/2000/svg"><style>.apst0{fill:#c79454}</style><path transform="rotate(-55.667 413.353 126.78)" class="apst0" d="M397.4 110.8h32v32h-32z"/><path transform="rotate(-55.667 360.504 90.733)" class="apst0" d="M344.5 74.7h32v32h-32z"/><path class="apst0" d="M491.5 160.9c-.2-.1-.4-.3-.6-.4L462 140.7l-18 26.4 28.9 19.8c4.4 2.9 7 7.9 7 13.1 0 3.2-1 6.4-2.9 9-5.3 7.2-15.3 9-22.8 4.1L255.9 77.7 57.5 213.1c-7.5 4.8-17.4 3-22.8-4.1-1.8-2.6-2.8-5.8-2.8-9 0-5.3 2.6-10.2 7-13.2l217-148.2 56 38.2 18-26.4-74-50.4-235 160.4c-21.9 15-27.4 44.9-12.4 66.7 8.9 13 23.7 20.8 39.4 20.8v256h416V248c15.7-.1 30.4-7.8 39.4-20.6 15.1-21.6 9.8-51.4-11.8-66.5zM431.9 472h-352V236.6l176-120.2 176 120.2V472z"/><path class="apst0" d="M303.9 296c0 35.3-28.7 64-64 64s-64-28.7-64-64c0-32.5 24.4-59.9 56.7-63.6l-3.6-31.8c-52.7 5.9-90.6 53.4-84.7 106.1s53.4 90.6 106.1 84.7c16.3-1.8 31.8-7.8 45.1-17.3l77.2 77.2 22.6-22.6-77.3-77.2c21.1-29.5 23.7-68.3 6.8-100.4L296.5 266c4.9 9.3 7.4 19.6 7.4 30z"/><path class="apst0" d="M300.7 221.7c-9.9-8.2-21.4-14.2-33.7-17.8l-9 30.7c8.2 2.4 15.8 6.4 22.4 11.9l20.3-24.8z"/></svg><svg version="1.1" id="i-jackpot" x="0" y="0" viewBox="0 0 512 512" xml:space="preserve" xmlns="http://www.w3.org/2000/svg"><style>.aqst0{fill:#f94949}</style><path class="aqst0" d="M76.9 273.1c4.7 0 8.5 3.8 8.5 8.5s-3.8 8.5-8.5 8.5-8.5-3.8-8.5-8.5 3.8-8.5 8.5-8.5zM409.7 147.7l-12.8-4.9L373 152l-.6 10.1 37.3-14.4z"/><path class="aqst0" d="M375.5 170.2l47-18.2 47 18.2c2.7 1 5.8.6 8.1-1.1 2.3-1.7 3.7-4.5 3.5-7.4l-2.8-50.2 31.8-38.9c1.8-2.2 2.4-5.2 1.5-8-.9-2.7-3.1-4.9-5.9-5.6L457 46.1 429.7 3.9C428 1.7 425.4.3 422.5.3s-5.5 1.3-7.2 3.6l-27.2 42.3-48.8 12.9c-2.8.7-5 2.8-5.9 5.6-.9 2.7-.3 5.8 1.5 8l31.8 38.9-2.8 50.1c-.2 2.3.7 4.6 2.3 6.3 1.6 1.7 3.9 2.7 6.2 2.7 1.1 0 2.1-.2 3.1-.5zm6.1-20.8l2.2-40.2c.1-2.1-.5-4.2-1.9-5.9l-25.5-31.2 39.1-10.3c2.1-.5 3.8-1.8 5-3.6l22-33.9 22 33.9c1.2 1.8 2.9 3.1 5 3.6l39.1 10.3-25.6 31.2c-1.3 1.7-2 3.8-1.9 5.9l2.2 40.2-37.8-14.6c-1.9-.8-4.1-.8-6.1 0l-37.8 14.6zM232.6 226.3l31.8 38.9-2.8 50.1c-.2 2.9 1.2 5.7 3.5 7.4 2.3 1.7 5.4 2.1 8.1 1.1l47-18.2 47 18.1c2.7 1 5.8.6 8.1-1.1 2.3-1.7 3.7-4.5 3.5-7.4l-2.8-50.1 31.8-38.9c1.8-2.2 2.4-5.2 1.5-8-.9-2.7-3.1-4.9-5.9-5.6l-48.8-12.9-27.3-42.2c-1.7-2.2-4.4-3.6-7.2-3.6-2.9 0-5.5 1.3-7.2 3.6l-27.3 42.2-48.7 12.9c-2.8.7-5.1 2.8-6 5.6-.9 2.7-.3 5.8 1.7 8.1zm21.3-.6l39.1-10.3c2.1-.5 3.8-1.8 5-3.6l22-33.9 22 33.9c1.2 1.8 2.9 3.1 5 3.6l39.1 10.3-25.5 31.2c-1.3 1.7-2 3.8-1.9 5.9l2.2 40.2-37.7-14.6c-1.9-.8-4.1-.8-6.1 0L279.3 303l2.2-40.2c.1-2.1-.5-4.2-1.9-5.9l-25.7-31.2zM113.5 2.5c-1.6 1.7-2.5 3.8-2.5 6.1 0 1.1.3 2.2.7 3.2s1 2 1.8 2.8c2.5 2.4 6.1 3.1 9.3 1.8 1-.4 2-1 2.8-1.8 1.6-1.7 2.5-3.8 2.5-6.1 0-.5-.1-1.1-.2-1.7-.1-.5-.3-1-.5-1.5s-.5-1-.8-1.5l-1-1.3c-3.3-3.3-8.7-3.3-12.1 0z"/><path class="aqst0" d="M.1 25.6v460.8c0 14.1 11.5 25.6 25.6 25.6h114.7c11.7 0 22-8 25-19.4l46.3-185.4h1.9c14.1 0 25.6-11.5 25.6-25.6S227.7 256 213.6 256h-17.1V89.3l42-35c5.8-4.9 9.2-12.1 9.2-19.7v-9.1c0-14.1-11.5-25.6-25.6-25.6h-68.3c-4.7 0-8.5 3.8-8.5 8.5s3.8 8.5 8.5 8.5h68.3c4.7 0 8.5 3.8 8.5 8.5v9.1c0 2.6-1.1 5-3.1 6.6l-42.7 35.6H17.2V25.5c0-4.7 3.8-8.5 8.5-8.5h59.7c4.7 0 8.5-3.8 8.5-8.5S90.1 0 85.4 0H25.7C11.6 0 .1 11.5.1 25.6zm63.8 277.9c-3.6-2.2-6.7-5.4-8.9-9.1-1.1-1.9-1.9-3.8-2.5-5.9-.1-.3-.1-.5-.2-.7-1.2-4.1-1.2-8.4 0-12.5.1-.3.1-.5.2-.7.6-2.1 1.4-4 2.5-5.9 2.1-3.8 5.2-6.9 8.9-9.1.3-.2.7-.4 1.1-.6 1.4-.7 2.8-1.3 4.3-1.8.5-.2 1.1-.4 1.6-.5 4-1.1 8.1-1.1 12.1 0 .6.1 1.1.3 1.6.5 1.5.5 2.9 1.1 4.3 1.8.3.2.7.4 1.1.6 3.6 2.2 6.7 5.4 8.9 9.1 1.1 1.9 1.9 3.8 2.5 5.9.1.3.1.5.2.7 1.1 4.1 1.1 8.4 0 12.5 0 .3-.1.5-.2.7-.6 2.1-1.4 4-2.5 5.9-2.1 3.7-5.2 6.9-8.9 9.1-.3.2-.7.4-1.1.6-1.4.7-2.8 1.3-4.3 1.8-.5.2-1.1.4-1.6.5-4 1.1-8.1 1.1-12.1 0-.6-.1-1.1-.3-1.6-.5-1.5-.5-2.9-1.1-4.3-1.8-.4-.2-.8-.4-1.1-.6zm4.5-141.3c0-4.7 3.8-8.5 8.5-8.5s8.5 3.8 8.5 8.5-3.8 8.5-8.5 8.5-8.5-3.9-8.5-8.5zm-33.3 128H17.2v-17.1h17.9c-.6 2.8-.9 5.6-.9 8.5s.3 5.7.9 8.6zm144.2-59.7h-17.1c-9.5 0-17.1-7.7-17.1-17.1v-76.8c0-9.5 7.7-17.1 17.1-17.1h17.1v111zm.2 17v8.5H111c-.5-.7-1.1-1.3-1.6-1.9-1.3-1.5-2.7-3-4.2-4.3-.8-.7-1.5-1.4-2.4-2-2.4-1.9-5-3.5-7.8-4.8-.9-.4-1.7-.7-2.6-1.1-2-.8-4.1-1.4-6.2-1.9-.2 0-.5-.1-.7-.2v-53.6c11.8-4.2 18.8-16.2 16.7-28.5S89.4 136.4 77 136.4s-23.1 9-25.2 21.3c-2.1 12.3 4.9 24.3 16.7 28.5v53.6c-.2 0-.5.1-.7.2-2.1.5-4.2 1.1-6.2 1.9-.9.3-1.7.7-2.6 1.1-2.8 1.3-5.4 2.9-7.8 4.8-.8.7-1.6 1.3-2.4 2-1.5 1.3-2.9 2.8-4.2 4.3-.6.7-1.1 1.3-1.6 1.9H17.2V94h162.1v8.5h-17.1c-18.8 0-34.1 15.2-34.1 34.1v76.8c0 18.8 15.2 34.1 34.1 34.1h17.3zm34 42.7h-94.7c1.1-5.7 1.1-11.5 0-17.1h94.7c4.7 0 8.5 3.8 8.5 8.5s-3.8 8.5-8.5 8.6zm-36.6 85.3h-53.1c-7.1 0-12.8-5.7-12.8-12.8s5.7-12.8 12.8-12.8h59.5l-6.4 25.6zM17 486.4V307.1h25.8c.5.7 1.1 1.3 1.6 1.9 1.3 1.5 2.7 3 4.2 4.3.8.7 1.5 1.4 2.4 2 2.4 1.9 5 3.5 7.8 4.8.9.4 1.7.7 2.6 1.1 2 .8 4.1 1.4 6.2 1.9.6.1 1.1.2 1.7.3 5 1 10.1 1 15.1 0 .6-.1 1.1-.2 1.7-.3 2.1-.5 4.2-1.1 6.2-1.9.9-.3 1.7-.7 2.6-1.1 2.8-1.3 5.4-2.9 7.8-4.8.8-.7 1.6-1.3 2.4-2 1.5-1.3 2.9-2.8 4.2-4.3.6-.7 1.1-1.3 1.6-1.9H194l-6.4 25.6h-63.7c-16.5 0-29.9 13.4-29.9 29.9s13.4 29.9 29.9 29.9h48.8l-24 95.9c-1 3.8-4.4 6.5-8.3 6.5H25.7c-4.7 0-8.5-3.8-8.5-8.5H17zM213.9 372.8c-1.5 4.5.9 9.3 5.4 10.8l25.6 8.5c4.5 1.5 9.3-.9 10.8-5.4s-.9-9.3-5.4-10.8l-25.6-8.5c-4.5-1.5-9.3.9-10.8 5.4zM230.8 420.8c.7 2.1 2.3 3.9 4.3 4.9l17.1 8.5c4.3 2.1 9.4.4 11.5-3.8 2.1-4.2.4-9.3-3.8-11.4l-17.1-8.5c-2-1.1-4.4-1.2-6.5-.5-2.1.7-3.9 2.3-4.9 4.3-1.1 2-1.2 4.4-.6 6.5zM319.7 445.1c-2.5 1.6-4 4.6-3.8 7.6.2 3 2 5.7 4.7 7.1l17.1 8.5c4.2 2.1 9.3.4 11.4-3.8 2.1-4.2.4-9.3-3.8-11.4l-17.1-8.5c-2.7-1.3-6-1.1-8.5.5zM311.1 357.6c4.2-2.2 5.9-7.3 3.8-11.5-2.1-4.2-7.2-5.9-11.4-3.8l-17.1 8.5c-4.2 2.2-6 7.3-3.8 11.5s7.3 5.9 11.5 3.8l17-8.5zM297.9 457.1c-2.1-4.2-7.2-5.9-11.4-3.8l-17.1 8.5c-2.7 1.3-4.5 4.1-4.7 7.1-.2 3 1.3 5.9 3.8 7.6s5.8 1.9 8.5.5l17.1-8.5c4.2-2.1 5.9-7.3 3.8-11.4zM238 457c-2.1-4.2-7.2-5.9-11.4-3.8l-17.1 8.5c-4.2 2.2-6 7.3-3.8 11.5s7.3 5.9 11.5 3.8l17.1-8.5c4.2-2.1 6-7.3 3.7-11.5zM315.8 409.6c0-4.7-3.8-8.5-8.5-8.5h-17.1c-4.7 0-8.5 3.8-8.5 8.5s3.8 8.5 8.5 8.5h17.1c4.7 0 8.5-3.8 8.5-8.5zM273.1 503.5c0-4.7-3.8-8.5-8.5-8.5h-17.1c-4.7 0-8.5 3.8-8.5 8.5s3.8 8.5 8.5 8.5h17.1c4.8 0 8.6-3.8 8.5-8.5z"/></svg><svg viewBox="0 0 443.4 512" id="i-lang" xmlns="http://www.w3.org/2000/svg"><path d="M439.1 86.7c-2.6-1.2-5.7-.9-8 1-.4.4-45.4 36.8-105.5 36.8-16 0-32.4-2.6-48.6-7.7V67.7c0-2.2-1-4.4-2.7-5.8-1.4-1.1-34.6-28.2-83.8-37.3-4.1-.8-8 1.9-8.8 6-.8 4.1 1.9 8 6 8.8 37.6 6.9 65.6 25.8 74.2 32v197.4c-18.4-11.9-55.9-31.5-102.8-31.5-46.8 0-84.3 19.6-102.8 31.5V71.4c10.6-7.8 51.1-34.7 102.8-34.7 4.2 0 7.5-3.4 7.5-7.5s-3.4-7.5-7.5-7.5c-46.8 0-84.3 19.6-102.8 31.5v-25C56.4 12.7 43.8 0 28.2 0 12.7 0 0 12.7 0 28.2V345c0 4.2 3.4 7.5 7.5 7.5s7.5-3.4 7.5-7.5V28.2C15 20.9 20.9 15 28.2 15s13.2 5.9 13.2 13.2v466.3c0 1.4-1.1 2.5-2.5 2.5H17.5c-1.4 0-2.5-1.1-2.5-2.5V375.1c0-4.2-3.4-7.5-7.5-7.5S0 370.9 0 375.1v119.4c0 9.7 7.9 17.5 17.5 17.5h21.4c9.7 0 17.5-7.9 17.5-17.5V287.1c10.6-7.8 51.1-34.7 102.8-34.7 17.8 0 34.3 3.2 48.6 7.7v46.4c0 2.2 1 4.4 2.7 5.8 2 1.6 49.4 40.2 115.1 40.2 4.2 0 7.5-3.4 7.5-7.5s-3.4-7.5-7.5-7.5c-43 0-78.2-18.6-94.9-29.4l41.7-17.8h.1c.1 0 .1 0 .2-.1 2.6-1.2 4.3-3.9 4.3-6.8V132.5c16.2 4.6 32.6 7 48.6 7 46.8 0 84.3-19.6 102.8-31.5v194.8c-8.6 6.3-36.6 25.1-74.2 32-4.1.8-6.8 4.7-6 8.8.7 3.6 3.8 6.1 7.4 6.1.5 0 .9 0 1.4-.1 49.2-9.1 82.4-36.2 83.8-37.3 1.7-1.4 2.7-3.6 2.7-5.8v-213c-.1-2.9-1.8-5.6-4.4-6.8zm-185 195.1l-31.3 13.4v-29.6c13.4 5.4 24.1 11.5 31.3 16.2z"/></svg><svg version="1.1" id="i-language" x="0" y="0" viewBox="0 0 512 503.5" xml:space="preserve" xmlns="http://www.w3.org/2000/svg"><style>.asst0{fill:#f3bb67}</style><path class="asst0" d="M168 347.2c21.1 29.7 42.1 56.3 56.1 73.4 2 2.5 3.9 4.8 5.8 7h-42.1c-4.7 0-8.5 3.8-8.5 8.5s3.8 8.5 8.5 8.5h136.5c4.7 0 8.5-3.8 8.5-8.5s-3.8-8.5-8.5-8.5h-42.1c1.8-2.2 3.7-4.5 5.8-7 13.9-17.1 35-43.7 56.1-73.4 20.9-28.9 39.8-59.3 56.4-90.9 17.4-34.2 26.3-62.6 26.3-84.4.1-45.3-17.9-88.8-50-120.8-2.1-2.2-5.3-3.1-8.3-2.3s-5.3 3.1-6.1 6.1.1 6.2 2.3 8.3c28.9 28.8 45 68 45 108.8 0 19.1-8.2 44.9-24.4 76.7-16.2 30.9-34.6 60.5-55.1 88.7-20.8 29.3-41.6 55.6-55.4 72.5-4.6 5.6-8.7 10.6-12.2 14.8-1.6 1.9-4 2.9-6.5 2.9s-4.9-1.1-6.5-2.9c-3.5-4.2-7.6-9.2-12.2-14.8-13.8-16.9-34.6-43.2-55.4-72.5-20.5-28.2-38.9-57.9-55.1-88.7-16.2-31.8-24.4-57.6-24.4-76.7 0-61.8 37-117.6 93.9-141.7 38.2-16 81.3-16 119.6 0 2.8 1.2 6 .8 8.5-1 2.4-1.8 3.7-4.8 3.3-7.9s-2.3-5.6-5.1-6.8C235.8-22.1 135.6 18.7 99 105.5c-8.9 21-13.5 43.7-13.4 66.5 0 21.8 8.8 50.2 26.3 84.5 16.3 31.5 35.1 61.8 56.1 90.7z" transform="translate(0 -1)"/><path class="asst0" d="M256 94.9c4.7 0 8.5-3.8 8.5-8.5s-3.8-8.5-8.5-8.5c-40.7 0-75.8 28.8-83.7 68.7-7.9 39.9 13.4 79.9 51 95.5 37.6 15.6 81 2.4 103.6-31.4s18.2-79-10.6-107.7c-2.1-2.2-5.3-3.1-8.3-2.3-3 .8-5.3 3.1-6.1 6.1-.8 3 .1 6.2 2.3 8.3 23 23 26.6 59.1 8.5 86.2s-52.8 37.6-82.9 25.1S182.6 182 189 150s34.4-55.1 67-55.1zM508.8 466.7l-52.5-93.9c-4.7-8.3-13.6-13.5-23.2-13.4h-60.8c-4.7 0-8.5 3.8-8.5 8.5s3.8 8.5 8.5 8.5h60.8c3.4-.1 6.6 1.7 8.3 4.7l52.5 93.9c1.4 2.4 1.4 5.5-.1 7.9-1.7 2.9-4.9 4.6-8.3 4.5h-459c-3.4.1-6.5-1.6-8.3-4.5-1.5-2.4-1.5-5.4-.1-7.9l52.5-93.9c1.7-2.9 4.9-4.7 8.3-4.7h60.8c4.7 0 8.5-3.8 8.5-8.5s-3.8-8.5-8.5-8.5H78.9c-9.6-.1-18.5 5.1-23.2 13.4L3.2 466.7c-4.4 7.7-4.3 17.2.3 24.8 4.8 8.1 13.6 13.1 23 13h459.1c9.4.1 18.2-4.8 23-13 4.5-7.6 4.6-17.1.2-24.8z" transform="translate(0 -1)"/><path class="asst0" d="M418.1 402.1H384c-1.7 0-3.3.5-4.7 1.4l-25.6 17.1c-3.9 2.6-5 7.9-2.4 11.8 2.6 3.9 7.9 5 11.8 2.4l23.4-15.6h31.6c4.7 0 8.5-3.8 8.5-8.5.1-4.8-3.8-8.6-8.5-8.6zM366.9 461.8c0 4.7 3.8 8.5 8.5 8.5h68.3c4.7 0 8.5-3.8 8.5-8.5s-3.8-8.5-8.5-8.5h-68.3c-4.6 0-8.5 3.8-8.5 8.5zM153.6 436.2c3.8 0 7.1-2.5 8.2-6.1 1.1-3.6-.3-7.5-3.4-9.6l-25.6-17.1c-1.4-.9-3.1-1.4-4.7-1.4H93.9c-4.7 0-8.5 3.8-8.5 8.5s3.8 8.5 8.5 8.5h31.6l23.5 15.6c1.3 1.1 2.9 1.6 4.6 1.6zM68.3 453.3c-4.7 0-8.5 3.8-8.5 8.5s3.8 8.5 8.5 8.5h68.3c4.7 0 8.5-3.8 8.5-8.5s-3.8-8.5-8.5-8.5H68.3z" transform="translate(0 -1)"/></svg><svg version="1.1" id="i-leaf" x="0" y="0" viewBox="0 0 474 474" xml:space="preserve" xmlns="http://www.w3.org/2000/svg"><style>.atst0{fill:#bdbbbb}</style><path class="atst0" d="M468.8.2c-3.2-.8-6.6.7-8.1 3.7-.6 1.3-16.5 32.4-85.8 69.1-1.9.8-3.4 2.5-3.9 4.6-4.3 16.2-10.2 32-17.6 47.1-4-8.8-6.8-18.1-8.1-27.7-.6-3.8-4.1-6.5-7.9-5.9-.6.1-1.2.3-1.7.5-18.3 7.8-38.3 15.3-59.3 22.1-27.9 8.9-54.8 20.6-80.3 35-1.5.8-2.6 2.2-3.1 3.8-3.2 9.3-6.6 18-10.2 26.3.2-2.8.4-5.7.6-8.8.3-3.9-2.5-7.2-6.4-7.6-1.6-.1-3.2.3-4.6 1.2-71.2 49.3-110 118.8-122 218.6-18.2 19.1-34.2 40.1-47.7 62.8-5.2 8.9-2.6 20.3 5.9 26.1 3 2 6.6 3 10.2 3h320c3.9 0 7-3.1 7-7s-3.1-7-7-7H38.1c12.2-19.6 26.4-37.8 42.4-54.3 69-3.4 229-17.3 291.9-74.2 4.6-4.1 8.9-8.5 13-13.1 2.6-2.9 2.3-7.3-.5-9.9-.9-.8-2-1.4-3.2-1.6-1.5-.3-3-.6-4.5-1 5-.7 10.6-1.4 16.7-1.9 2.1-.2 4-1.3 5.1-3 51.1-74.2 65.8-131.8 74.9-293.6.3-3.4-1.9-6.4-5.1-7.3zM14.8 452c43.6-74.8 124.3-131.6 209.7-191.8 17.9-12.6 38.1-26.9 57.6-41.1.9-.6 1.9-1 3-1 .3 0 .5 0 .8.1 1.3.2 2.5.9 3.2 2 1.6 2.2 1.1 5.3-1.1 7-19.5 14.3-39.8 28.6-57.8 41.2C145.6 328 65.6 384.3 23.1 457.5c-1.4 2.4-4.4 3.2-6.8 1.8-.1 0-.1-.1-.2-.1-2.2-1.7-2.8-4.8-1.3-7.2zm374.6-161.7c-14.8 1.2-29.5 3.8-43.9 7.6-3.7 1.1-5.8 5-4.7 8.7.6 2.1 2.3 3.8 4.3 4.6 6.7 2.4 13.9 4.6 21.5 6.5-1.2 1.1-2.4 2.3-3.6 3.3-56 50.7-202.1 65.5-267.8 69.7 40.4-38.7 90.8-74.2 143-111 18-12.7 38.4-27 58-41.4 8.4-6.2 10.2-18 4.1-26.5-6.2-8.5-18-10.4-26.5-4.2l-.1.1c-19.3 14.2-39.5 28.4-57.4 41C162.1 287 109.6 324 66.9 365.3c13-80.1 45.6-138.5 101.5-181.4-.4 8.2-.3 16.3.3 24.5.4 3.8 3.8 6.7 7.7 6.3 2.2-.2 4.2-1.5 5.3-3.4 9.6-16.4 17.5-33.7 23.6-51.7 24-13.3 49.3-24.2 75.4-32.5 18.4-6 35.9-12.4 52.4-19.2 5.1 23.3 14.9 35.1 15.4 35.6 2.5 2.9 6.9 3.3 9.9.8.6-.5 1.1-1.2 1.6-1.9 10.2-18.4 18.2-37.9 23.8-58.2 39.4-21.1 62.2-40.6 75-54.4-9.1 139.3-24 193.8-69.4 260.5z"/><path class="atst0" d="M430.1 141.1c-3.8-.7-7.4 1.8-8.1 5.6-1.9 10.6-4 20.3-6.3 29.6-.9 3.7 1.3 7.6 5.1 8.5.6.1 1.1.2 1.7.2 3.2 0 6-2.2 6.8-5.3 2.4-9.6 4.6-19.6 6.6-30.5.5-3.8-2-7.4-5.8-8.1z"/></svg><svg viewBox="0 0 499.5 488.2" id="i-lines-pay" xmlns="http://www.w3.org/2000/svg"><path d="M434.1 390.7c-3.7 0-6.7 4-6.7 8.9v23.7c0 21.2-13.1 38.6-29.2 38.6H92.8c-16.1 0-29.2-17.3-29.2-38.6V162.1c0-4.9-3-8.9-6.7-8.9s-6.7 4-6.7 8.9v261.2c0 31.1 19.2 56.4 42.7 56.4h305.3c23.5 0 42.7-25.3 42.7-56.4v-23.7c-.2-5-3.2-8.9-6.8-8.9zM56.8 76.8c3.7 0 6.7-3 6.7-6.7V52.2C63.6 36.1 76.7 23 92.7 23H398c16.1 0 29.2 13.1 29.2 29.2v197.5a6.7 6.7 0 0 0 13.4 0V52.2c0-23.5-19.2-42.7-42.7-42.7H92.8c-23.6 0-42.7 19.2-42.7 42.7v18c.1 3.6 3.1 6.6 6.7 6.6z"/><path d="M456.7 289.9L438.8 272c-2.7-2.7-6.9-2.7-9.5 0-2.7 2.7-2.7 6.9 0 9.5l6.5 6.5h-76.7c-2.9-10.3-12.5-18-23.7-18-3.7 0-7.2.8-10.2 2.2l-122-143.5c2.7-3.9 4.2-8.7 4.2-13.7 0-13.6-11.1-24.7-24.7-24.7-11.2 0-20.8 7.6-23.7 18H80.6c-3-10.4-12.5-18-23.8-18-13.6 0-24.7 11.1-24.7 24.7 0 13.7 11.1 24.7 24.7 24.7 11.2 0 20.8-7.6 23.7-18h78.2c2.9 10.3 12.5 18 23.7 18 3.7 0 7.2-.8 10.2-2.2l121.9 143.4c-2.7 3.9-4.2 8.7-4.2 13.7 0 13.6 11.1 24.7 24.7 24.7 11.2 0 20.8-7.6 23.7-18h76.7l-6.5 6.5c-2.7 2.7-2.7 6.9 0 9.5 1.3 1.3 3 2 4.7 2 1.7 0 3.4-.7 4.7-2l18-18c3.1-2.5 3.1-6.8.4-9.4zM56.8 126.2c-6.2 0-11.2-5-11.2-11.2s5-11.2 11.2-11.2S68 108.8 68 115s-4.9 11.2-11.2 11.2zm133.2-2.7l-.2.2c-1.9 1.6-4.4 2.6-7.2 2.6-6.2 0-11.2-5-11.2-11.2s5-11.2 11.2-11.2 11.2 5 11.2 11.2c0 3.3-1.5 6.3-3.8 8.4zm145.3 182.4c-6.2 0-11.2-5-11.2-11.2 0-6.2 5-11.2 11.2-11.2 6.2 0 11.2 5 11.2 11.2 0 6.2-5.1 11.2-11.2 11.2z"/><path d="M453.2 114.1c-11.7 0-21.1 9.5-21.1 21.1 0 .9.1 1.7.2 2.6l-78 39c-6.4-8.2-16.4-13.5-27.7-13.5-19.4 0-35.2 15.7-35.2 35.2 0 7.7 2.5 14.8 6.7 20.6l-40 43.7c-.2.2-.4.5-.6.7-2.6-1.1-5.3-1.7-8.3-1.7-4 0-7.7 1.1-10.9 3.1l-46.6-38.1c.8-2.2 1.2-4.7 1.2-7.2 0-11.7-9.5-21.1-21.1-21.1-11.7 0-21.1 9.5-21.1 21.1 0 5.9 2.4 11.2 6.3 15L124.6 304c-.7-.1-1.3-.1-2-.1-11.7 0-21.1 9.5-21.1 21.1 0 1.2.1 2.2.2 3.3l-42.4 23.2c-3.7-3.3-8.7-5.4-14.1-5.4-11.7 0-21.1 9.5-21.1 21.1s9.5 21.1 21.1 21.1 21.1-9.5 21.1-21.1c0-1.2-.1-2.2-.2-3.3l42.4-23.2c3.7 3.3 8.7 5.4 14.1 5.4 11.7 0 21.1-9.5 21.1-21.1 0-5.9-2.4-11.2-6.3-15l32.4-69.4c.7.1 1.3.1 2 .1 4 0 7.7-1.1 10.9-3.1l46.6 38.1c-.8 2.2-1.2 4.7-1.2 7.2 0 11.7 9.5 21.1 21.1 21.1 11.7 0 21.1-9.5 21.1-21.1 0-3.6-.9-7-2.5-10 .2-.2.4-.4.7-.6l40-43.7c5.2 3.2 11.5 5 18.1 5 19.4 0 35.2-15.7 35.2-35.2 0-3.2-.4-6.2-1.2-9.1l78-39c3.8 3.7 8.9 5.9 14.7 5.9 11.7 0 21.1-9.5 21.1-21.1s-9.7-21-21.2-21zm-407.8 260c-3.9 0-7-3.2-7-7 0-3.9 3.2-7 7-7s7 3.2 7 7c0 3.9-3.1 7-7 7zm77.3-42.2c-3.9 0-7-3.2-7-7 0-3.9 3.2-7 7-7 3.9 0 7 3.2 7 7 .1 3.9-3.1 7-7 7zM172 226.5c-3.9 0-7-3.2-7-7s3.2-7 7-7c3.9 0 7 3.2 7 7 0 3.9-3.2 7-7 7zm77.3 63.3c-3.9 0-7-3.2-7-7 0-3.9 3.2-7 7-7 3.9 0 7 3.2 7 7s-3.2 7-7 7zm77.3-70.3c-11.7 0-21.1-9.5-21.1-21.1 0-11.7 9.5-21.1 21.1-21.1s21.1 9.5 21.1 21.1c0 11.6-9.5 21.1-21.1 21.1zm126.6-77.4c-3.9 0-7-3.2-7-7s3.2-7 7-7c3.9 0 7 3.2 7 7s-3.2 7-7 7z"/><path d="M326.6 191.4c-1.8 0-3.7.7-5 2.1-1.3 1.3-2.1 3.1-2.1 5 0 1.8.7 3.7 2.1 5s3.1 2.1 5 2.1c1.8 0 3.7-.7 5-2.1 1.3-1.3 2.1-3.1 2.1-5 0-1.8-.7-3.7-2.1-5-1.3-1.4-3.2-2.1-5-2.1zM326.6 149.2c1.8 0 3.7-.7 5-2.1 1.3-1.3 2.1-3.1 2.1-5 0-1.8-.7-3.7-2.1-5-1.3-1.3-3.2-2.1-5-2.1s-3.7.7-5 2.1-2.1 3.1-2.1 5c0 1.8.7 3.7 2.1 5 1.3 1.4 3.2 2.1 5 2.1zM326.6 121.1c1.8 0 3.7-.7 5-2.1 1.3-1.3 2.1-3.2 2.1-5s-.7-3.7-2.1-5c-1.3-1.3-3.1-2.1-5-2.1-1.8 0-3.7.7-5 2.1-1.3 1.3-2.1 3.1-2.1 5 0 1.8.7 3.7 2.1 5 1.3 1.3 3.2 2.1 5 2.1zM326.6 93c1.8 0 3.7-.7 5-2.1 1.3-1.3 2.1-3.2 2.1-5s-.7-3.7-2.1-5c-1.3-1.3-3.2-2.1-5-2.1s-3.7.7-5 2.1-2.1 3.2-2.1 5 .7 3.7 2.1 5 3.2 2.1 5 2.1zM326.6 64.8c1.8 0 3.7-.7 5-2.1 1.3-1.3 2.1-3.1 2.1-5 0-1.8-.7-3.7-2.1-5-1.3-1.3-3.1-2.1-5-2.1-1.8 0-3.7.7-5 2.1s-2.1 3.2-2.1 5c0 1.8.7 3.7 2.1 5 1.3 1.4 3.2 2.1 5 2.1zM326.6 331.9c-1.8 0-3.7.7-5 2.1s-2.1 3.1-2.1 5c0 1.8.7 3.7 2.1 5s3.1 2.1 5 2.1c1.8 0 3.7-.7 5-2.1 1.3-1.3 2.1-3.1 2.1-5 0-1.8-.7-3.7-2.1-5-1.3-1.3-3.2-2.1-5-2.1zM326.6 303.9c-1.8 0-3.7.7-5 2.1s-2.1 3.2-2.1 5 .7 3.7 2.1 5c1.3 1.3 3.2 2.1 5 2.1s3.7-.7 5-2.1c1.3-1.3 2.1-3.2 2.1-5s-.7-3.7-2.1-5c-1.3-1.4-3.2-2.1-5-2.1zM326.6 275.7c-1.8 0-3.7.7-5 2.1s-2.1 3.1-2.1 5c0 1.8.7 3.7 2.1 5 1.3 1.3 3.1 2.1 5 2.1 1.8 0 3.7-.7 5-2.1 1.3-1.3 2.1-3.1 2.1-5 0-1.8-.7-3.7-2.1-5-1.3-1.4-3.2-2.1-5-2.1zM326.6 247.6c-1.8 0-3.7.7-5 2.1-1.3 1.3-2.1 3.1-2.1 5 0 1.8.7 3.7 2.1 5s3.1 2.1 5 2.1c1.8 0 3.7-.7 5-2.1 1.3-1.3 2.1-3.1 2.1-5 0-1.8-.7-3.7-2.1-5-1.3-1.3-3.2-2.1-5-2.1zM326.6 444.4c-1.8 0-3.7.7-5 2.1-1.3 1.3-2.1 3.1-2.1 5 0 1.8.7 3.7 2.1 5s3.1 2.1 5 2.1c1.8 0 3.7-.7 5-2.1 1.3-1.3 2.1-3.1 2.1-5 0-1.8-.7-3.7-2.1-5-1.3-1.3-3.2-2.1-5-2.1zM326.6 416.3c-1.8 0-3.7.7-5 2.1s-2.1 3.1-2.1 5c0 1.8.7 3.7 2.1 5 1.3 1.3 3.1 2.1 5 2.1 1.8 0 3.7-.7 5-2.1 1.3-1.3 2.1-3.1 2.1-5 0-1.8-.7-3.7-2.1-5-1.3-1.3-3.2-2.1-5-2.1zM326.6 388.2c-1.8 0-3.7.7-5 2.1s-2.1 3.1-2.1 5c0 1.8.7 3.7 2.1 5 1.3 1.3 3.1 2.1 5 2.1 1.8 0 3.7-.7 5-2.1 1.3-1.3 2.1-3.2 2.1-5s-.7-3.7-2.1-5-3.2-2.1-5-2.1zM326.6 360.1c-1.8 0-3.7.7-5 2.1s-2.1 3.1-2.1 5c0 1.8.7 3.7 2.1 5s3.2 2.1 5 2.1 3.7-.7 5-2.1c1.3-1.3 2.1-3.1 2.1-5 0-1.8-.7-3.7-2.1-5s-3.2-2.1-5-2.1z"/></svg><svg version="1.1" id="i-mail" x="0" y="0" viewBox="0 0 454.6 397.1" xml:space="preserve" xmlns="http://www.w3.org/2000/svg"><style>.avst0{fill:#f3bb67}</style><path class="avst0" d="M452.4 127.5L386.6 81V13.1C386 6.3 380.8.9 374.1 0H85.7C79 .9 73.8 6.3 73.1 13.1v67.4l-68.4 47c-2.7 2-4.4 5-4.7 8.4V384c.9 6.8 6.3 12.2 13.1 13.1h433.6c5.7 0 7.8-6.8 7.8-13.1V135.8c0-3.1.6-6.2-2.1-8.3zm-65.8-21.4l44.9 30.8-44.9 34v-64.8zM94 20.9h271.7V187L229.9 289.4 94 187V20.9zm-20.9 84.6v65.8l-44.9-34.5 44.9-31.3zm-52.2 52.8l146.3 110.8-146.3 98.7V158.3zM46 376.2l139-93.5 37.1 28.2c2.1 1.6 4.7 2.5 7.3 2.6 2.1 0 3.1-1 5.2-2.6l38.7-29.8 140.5 95.1H46zm387.6-12.1L290.5 268l143.2-109.7v205.8h-.1z"/><path class="avst0" d="M146.3 88.8h47c5.8 0 10.4-4.7 10.4-10.4S199 68 193.3 68h-47c-5.8 0-10.4 4.7-10.4 10.4s4.6 10.4 10.4 10.4zM146.3 135.8h167.2c5.8 0 10.4-4.7 10.4-10.4s-4.7-10.4-10.4-10.4H146.3c-5.8 0-10.4 4.7-10.4 10.4s4.6 10.4 10.4 10.4zM323.9 172.4c0-5.8-4.7-10.4-10.4-10.4H146.3c-5.8 0-10.4 4.7-10.4 10.4s4.7 10.4 10.4 10.4h167.2c5.7.1 10.4-4.6 10.4-10.4z"/></svg><svg viewBox="0 0 499.5 488.2" id="i-max-bet" xmlns="http://www.w3.org/2000/svg"><path d="M371.4 182.4c-32.5-32.5-75.7-50.4-121.6-50.4s-89.2 17.9-121.6 50.4C95.6 215 77.7 258.1 77.7 304.1s17.9 89.2 50.4 121.6c32.5 32.5 75.7 50.4 121.6 50.4s89.2-17.9 121.6-50.4c32.5-32.5 50.4-75.7 50.4-121.6s-17.8-89.2-50.3-121.7zM249.8 455.9c-83.7 0-151.9-68.1-151.9-151.9S166 152.2 249.8 152.2s151.9 68.1 151.9 151.9-68.2 151.8-151.9 151.8z"/><path d="M260.6 294H239c-12.3 0-22.3-10-22.3-22.3s10-22.3 22.3-22.3h43.2c5.6 0 10.1-4.5 10.1-10.1s-4.5-10.1-10.1-10.1h-22.4v-22.3c0-5.6-4.5-10.1-10.1-10.1s-10.1 4.5-10.1 10.1v22.3h-.7c-23.4 0-42.5 19.1-42.5 42.5s19.1 42.5 42.5 42.5h21.6c12.3 0 22.3 10 22.3 22.3s-10 22.3-22.3 22.3h-43.2c-5.6 0-10.1 4.5-10.1 10.1s4.5 10.1 10.1 10.1h22.4v22.3c0 5.6 4.5 10.1 10.1 10.1s10.1-4.5 10.1-10.1V379h.7c23.4 0 42.5-19.1 42.5-42.5-.1-23.4-19.1-42.5-42.5-42.5zM242.1 12.3L186 68.7c-4.2 4.2-4.2 11 .1 15.3s11 4.2 15.3-.1L239 46v98.2l21.6 3V46l37.7 37.8c4.2 4.2 11 4.2 15.3.1 4.2-4.2 4.2-11 .1-15.3l-56.2-56.4c-4.3-4.2-11.2-4.2-15.4.1z"/></svg><svg viewBox="0 0 499.5 488.2" id="i-max-coin" xmlns="http://www.w3.org/2000/svg"><path d="M87.1 409.7c43.8 43.8 101.8 67.8 163.7 67.8s120-24.1 163.7-67.8c43.8-43.8 67.8-101.8 67.8-163.7s-24.1-120-67.8-163.7c-43.7-43.8-101.8-67.8-163.7-67.8s-120 24.1-163.7 67.8C43.3 126 19.3 184.1 19.3 246s24 120 67.8 163.7zM250.8 28.1c120.2 0 217.9 97.8 217.9 217.9s-97.8 217.9-217.9 217.9-218-97.7-218-217.9 97.8-217.9 218-217.9z"/><path d="M250.8 396.1c82.7 0 150.1-67.4 150.1-150.1S333.5 95.9 250.8 95.9 100.6 163.3 100.6 246 168 396.1 250.8 396.1zm0-286.6c75.3 0 136.5 61.2 136.5 136.5s-61.2 136.5-136.5 136.5S114.2 321.3 114.2 246s61.2-136.5 136.6-136.5z"/><path d="M136 250c1.1 2.5 3.5 4.2 6.2 4.2h20.3v60.6c0 3.7 3.1 6.8 6.8 6.8h162.8c3.7 0 6.8-3.1 6.8-6.8v-60.6h20.3c2.7 0 5.2-1.6 6.2-4.2 1.1-2.5.5-5.4-1.4-7.4L255.5 134c-1.4-1.4-3.1-2-4.8-2s-3.4.6-4.8 2L137.4 242.6c-1.9 2-2.5 4.8-1.4 7.4zm114.8-101.6l92.1 92.1h-10.8c-3.7 0-6.8 3.1-6.8 6.8v60.6H176.1v-60.6c0-3.7-3.1-6.8-6.8-6.8h-10.8l92.3-92.1z"/><circle cx="250.8" cy="341.9" r="6.8"/><circle cx="277.9" cy="341.9" r="6.8"/><circle cx="223.6" cy="341.9" r="6.8"/><path d="M106.2 390.5c38.6 38.6 89.9 59.9 144.5 59.9s105.9-21.3 144.5-59.9 59.9-89.9 59.9-144.5c0-49.4-17.8-97-50.3-134.3-2.4-2.8-6.8-3.1-9.6-.6-2.8 2.4-3.1 6.8-.6 9.6 30.3 34.7 46.9 79.2 46.9 125.3 0 105.2-85.6 190.8-190.8 190.8S59.9 351.2 59.9 246 145.6 55.2 250.8 55.2c46.1 0 90.6 16.6 125.3 46.9 2.8 2.4 7.1 2.2 9.6-.6s2.2-7.1-.6-9.6c-37.3-32.5-84.9-50.3-134.3-50.3-54.6 0-105.9 21.3-144.5 59.9S46.4 191.4 46.4 246s21.2 105.9 59.8 144.5z"/></svg><svg viewBox="0 0 499.5 488.2" id="i-max-win" xmlns="http://www.w3.org/2000/svg"><path d="M245.5 218.6C189.5 218.6 144 264 144 320s45.4 101.4 101.4 101.4S346.9 376 346.9 320s-45.5-101.3-101.4-101.4zm0 184.4c-45.8 0-83-37.2-83-83s37.2-83 83-83 83 37.2 83 83-37.2 83-83 83z"/><path d="M261.9 294.3c0 5.1 4.1 9.2 9.2 9.2s9.2-4.1 9.2-9.2c0-15.7-10.5-29.5-25.7-33.7v-5.8c0-5.1-4.1-9.2-9.2-9.2s-9.2 4.1-9.2 9.2v5.8c-18.6 5.1-29.5 24.2-24.5 42.8 3.3 12 12.5 21.2 24.5 24.5v31.5c-4.6-3-7.2-8.2-7.2-13.7 0-5.1-4.1-9.2-9.2-9.2s-9.2 4.1-9.2 9.2c0 15.7 10.5 29.5 25.7 33.7v5.8c0 5.1 4.1 9.2 9.2 9.2s9.2-4.1 9.2-9.2v-5.8c18.6-5.1 29.5-24.2 24.5-42.8-3.3-12-12.5-21.2-24.5-24.5v-31.5c4.6 3 7.2 8.2 7.2 13.7zm-32.9 0c0-5.5 2.8-10.7 7.2-13.7V308c-4.6-3.1-7.2-8.1-7.2-13.7zm32.9 51.5c0 5.5-2.8 10.7-7.2 13.7v-27.4c4.6 3.1 7.2 8.2 7.2 13.7z"/><path d="M311.3 169c12.4-10 14.4-28.1 4.3-40.4-4.9-6.1-12-9.9-19.6-10.5l25.4-68c1.8-4.7-.7-10.1-5.4-11.9-1.1-.4-2.1-.5-3.2-.5H281c-5.1-19.6-25.2-31.5-44.8-26.3-12.9 3.3-22.9 13.4-26.2 26.2h-32c-5.1 0-9.2 4.1-9.2 9.2 0 1.1.3 2.2.5 3.2l25.4 68c-15.8 1.4-27.4 15.5-26 31.2.7 7.8 4.5 14.8 10.5 19.6-72.6 27.8-120.8 97.5-120.9 175.3 0 90.9 64.7 139 187.1 139s187.1-48.1 187.1-139c-.1-77.8-48.3-147.5-121.2-175.1zM211.9 56L225 88c2 4.7 7.4 7 12 5 4.7-2 7-7.4 5-12l-14.8-35.7c.8-10 9.5-17.5 19.5-16.7 9.5.7 16.9 8.7 16.7 18.2 0 5.1 4.1 9.2 9.2 9.2h26.6L276 117.9h-61.8l-23-61.9h20.7zm-14.3 101c-5.7 0-10.3-4.6-10.3-10.3s4.6-10.3 10.3-10.3h95.6c5.7 0 10.3 4.6 10.3 10.3s-4.6 10.3-10.3 10.3h-95.6zm47.9 307.7c-111.8 0-168.6-40.6-168.6-120.5 0-93.1 75.5-168.6 168.6-168.6S414.1 251 414.1 344.1c0 80-56.8 120.6-168.6 120.6z"/></svg><svg viewBox="0 0 499.5 488.2" id="i-min-bet" xmlns="http://www.w3.org/2000/svg"><path d="M373.1 60.5C340.5 27.9 297.2 9.9 251 9.9s-89.5 17.9-122.1 50.6c-32.7 32.6-50.6 76-50.6 122.1s17.9 89.5 50.6 122.1c32.7 32.7 76 50.6 122.1 50.6s89.5-17.9 122.1-50.6c32.7-32.7 50.6-76 50.6-122.1s-17.9-89.5-50.6-122.1zM251 335.2c-84.1 0-152.5-68.4-152.5-152.5S166.9 30.2 251 30.2s152.5 68.4 152.5 152.5S335.1 335.2 251 335.2z"/><path d="M261.9 172.6h-21.7c-12.3 0-22.4-10.1-22.4-22.4s10.1-22.4 22.4-22.4h43.4c5.6 0 10.1-4.5 10.1-10.1s-4.5-10.1-10.1-10.1h-22.5V85.1c0-5.6-4.5-10.1-10.1-10.1s-10.1 4.5-10.1 10.1v22.4h-.7c-23.5 0-42.6 19.2-42.6 42.6s19.2 42.6 42.6 42.6h21.7c12.3 0 22.4 10.1 22.4 22.4s-10.1 22.4-22.4 22.4h-43.4c-5.6 0-10.1 4.5-10.1 10.1s4.5 10.1 10.1 10.1H241v22.4c0 5.6 4.5 10.1 10.1 10.1s10.1-4.5 10.1-10.1v-22.4h.7c23.5 0 42.6-19.2 42.6-42.6s-19.2-42.5-42.6-42.5zM258.7 475.7l56.3-56.6c4.3-4.3 4.2-11.1-.1-15.3-4.3-4.3-11.1-4.2-15.3.1l-37.9 38v-98.6l-21.7-3v101.6l-37.9-38c-4.3-4.3-11.1-4.3-15.3-.1-4.3 4.3-4.3 11.1-.1 15.3l56.3 56.6c4.6 4.2 11.4 4.2 15.7 0z"/></svg><svg viewBox="0 0 499.5 488.2" id="i-min-coin" xmlns="http://www.w3.org/2000/svg"><path d="M414.9 74.1C370.8 30 312.1 5.7 249.8 5.7S128.7 30 84.6 74.1c-44.1 44.1-68.4 102.7-68.4 165.1s24.3 121 68.4 165.1c44.1 44.1 102.7 68.4 165.1 68.4s121-24.3 165.1-68.4c44.1-44.1 68.4-102.7 68.4-165.1s-24.2-121-68.3-165.1zM249.8 459C128.6 459 30 360.4 30 239.2S128.5 19.4 249.8 19.4 469.6 118 469.6 239.2 371 459 249.8 459z"/><path d="M249.8 87.8c-83.5 0-151.4 67.9-151.4 151.4s67.9 151.4 151.4 151.4 151.4-67.9 151.4-151.4-68-151.4-151.4-151.4zm0 289.1c-75.9 0-137.7-61.8-137.7-137.7s61.8-137.7 137.7-137.7 137.7 61.8 137.7 137.7-61.8 137.7-137.7 137.7z"/><path d="M365.5 235.2c-1.1-2.6-3.6-4.2-6.3-4.2h-20.5v-61.1c0-3.8-3.1-6.8-6.8-6.8H167.7c-3.8 0-6.8 3.1-6.8 6.8V231h-20.5c-2.8 0-5.3 1.7-6.3 4.2-1.1 2.6-.5 5.5 1.5 7.5l109.5 109.5c1.3 1.3 3.1 2 4.8 2 1.8 0 3.5-.7 4.8-2L364 242.7c2-2 2.6-4.9 1.5-7.5zM249.8 337.6l-92.9-92.9h10.8c3.8 0 6.8-3.1 6.8-6.8v-61.1H325v61.1c0 3.8 3.1 6.8 6.8 6.8h10.8l-92.8 92.9z"/><circle cx="249.8" cy="142.5" r="6.8"/><circle cx="222.4" cy="142.5" r="6.8"/><circle cx="277.1" cy="142.5" r="6.8"/><path d="M395.5 93.4C356.6 54.5 304.8 33 249.7 33S142.9 54.5 104 93.4s-60.4 90.7-60.4 145.8c0 49.8 18 97.9 50.7 135.4 2.5 2.8 6.8 3.1 9.7.7 2.8-2.5 3.1-6.8.7-9.7-30.5-35-47.3-79.9-47.3-126.4 0-106.1 86.3-192.5 192.5-192.5S442.4 133 442.4 239.2s-86.3 192.5-192.5 192.5c-46.5 0-91.4-16.8-126.4-47.3-2.8-2.5-7.2-2.2-9.7.7-2.5 2.8-2.2 7.2.7 9.7 37.5 32.7 85.6 50.7 135.4 50.7 55.1 0 106.8-21.4 145.8-60.4s60.4-90.7 60.4-145.8-21.7-106.9-60.6-145.9z"/></svg><svg viewBox="0 0 499.5 488.2" id="i-mobile-friendly" xmlns="http://www.w3.org/2000/svg"><path d="M337.8 420.1h48v16h-48v-16zM337.8 468.1h48v16h-48v-16zM257.8 452.1h-176c-4.4 0-8-3.6-8-8s3.6-8 8-8h176c4.4 0 8 3.6 8 8s-3.7 8-8 8zM129.8 236.1h16v16h-16v-16zM134.1 284l15.5-4.1 4.1 15.5-15.5 4.1-4.1-15.5zM150.4 329.1l13.9-8 8 13.9-13.9 8-8-13.9zM177.9 368.5l11.3-11.3 11.3 11.3-11.3 11.3-11.3-11.3zM214.9 399.5l8-13.9 13.9 8-8 13.9-13.9-8zM133.9 204.2l4.1-15.5 15.5 4.1-4.1 15.5-15.5-4.1zM150.4 159l8-13.9 13.9 8-8 13.9-13.9-8zM177.9 119.7l11.3-11.3 11.3 11.3-11.2 11.3-11.4-11.3zM214.9 88.8l13.9-8 8 13.9-13.9 8-8-13.9zM409.8 100.1c-4.4 0-8-3.6-8-8s-3.6-8-8-8-8-3.6-8-8 3.6-8 8-8c13.3 0 24 10.7 24 24 0 4.4-3.7 8-8 8zM473.8 100.1c-4.4 0-8-3.6-8-8 0-39.7-32.3-72-72-72-4.4 0-8-3.6-8-8s3.6-8 8-8c48.6.1 87.9 39.4 88 88 0 4.4-3.7 8-8 8z"/><path d="M441.8 100.1c-4.4 0-8-3.6-8-8 0-22.1-17.9-40-40-40-4.4 0-8-3.6-8-8s3.6-8 8-8c30.9 0 56 25.1 56 56 0 4.4-3.7 8-8 8zM265.8 252.1h-8v-8c0-4.4-3.6-8-8-8s-8 3.6-8 8v8h-8c-4.4 0-8 3.6-8 8s3.6 8 8 8h8v8c0 4.4 3.6 8 8 8s8-3.6 8-8v-8h8c4.4 0 8-3.6 8-8s-3.7-8-8-8zM385.8 252.1h16v16h-16v-16zM369.8 236.1h16v16h-16v-16zM369.8 268.1h16v16h-16v-16zM353.8 252.1h16v16h-16v-16z"/><path d="M377.8 204.1h-40c0-10.1-6.4-19.1-16-22.5v-41.5c0-4.4-3.6-8-8-8s-8 3.6-8 8v41.5c-9.6 3.4-16 12.4-16 22.5h-40c-30.9 0-56 25-56 56 0 30.9 25 56 56 56 21.6 0 41.4-12.4 50.6-32h26.9c13.3 27.9 46.7 39.9 74.6 26.6s39.9-46.7 26.6-74.6c-9.4-19.6-29.1-32-50.7-32zm-64-8c4.4 0 8 3.6 8 8h-16c0-4.4 3.6-8 8-8zm64 104c-16.9 0-32-10.7-37.6-26.6-1.1-3.2-4.1-5.4-7.6-5.4H295c-3.4 0-6.4 2.2-7.6 5.4-7.4 20.8-30.2 31.7-51.1 24.3-20.8-7.4-31.7-30.2-24.3-51.1 5.7-16 20.8-26.7 37.8-26.6h128c22.1 0 40 17.9 40 40s-17.9 40-40 40z"/><path d="M297.8 236.1h16v16h-16v-16zM321.8 236.1h16v16h-16v-16zM353.8 404.1h16v48h-16v-48z"/><path d="M321.8 92.5V44.1c0-22.1-17.9-40-40-40h-224c-22.1 0-40 17.9-40 40v400c0 25 12 40 32 40h224c22.2 0 48-17.5 48-40v-48.4c83.7-4.2 148.2-75.5 144-159.2-4-77.9-66.3-140.1-144-144zm-232-72.4h160v24c0 4.4-3.6 8-8 8h-144c-4.4 0-8-3.6-8-8v-24zm184 448h-224c-4 0-16 0-16-24v-400c0-13.3 10.7-24 24-24h16v24c0 13.3 10.7 24 24 24h144c13.3 0 24-10.7 24-24v-24h16c13.3 0 24 10.7 24 24v48.4c-83.7 4.2-148.2 75.5-144 159.2 3.9 77.8 66.1 140 144 144v48.4c0 12.4-18 24-32 24zm40-88c-75.1 0-136-60.9-136-136s60.9-136 136-136 136 60.9 136 136c-.2 75.1-60.9 135.9-136 136z"/></svg><svg viewBox="0 0 499.5 488.2" id="i-multiplayer" xmlns="http://www.w3.org/2000/svg"><path d="M250.6 433.9c104.3 0 188.8-84.5 188.8-188.8S355 56.3 250.6 56.3 61.8 140.8 61.8 245.1c.2 104.2 84.6 188.7 188.8 188.8zM80.7 245.1c0-13.6 1.8-27 5-40.1l78.4 66-32.8 94.9c-32.4-31.8-50.6-75.4-50.6-120.8zm207.9-66.8c1.3 3.1 4.2 5.3 7.7 5.7l101.4 11.4-77.7 65.4c-2.9 2.5-4.1 6.6-2.8 10.3l32.1 92.9-96.4-24.1c-1.5-.4-3.1-.4-4.6 0L151.9 364l32.1-92.9c1.3-3.7.1-7.8-2.8-10.3l-77.6-65.4L204.9 184c3.4-.4 6.3-2.6 7.7-5.7l38-88.6 38 88.6zm-136.5 205l98.5-24.7 98.5 24.7c-58.8 42.3-138.1 42.3-197 0zm217.8-17.4L337.2 271l78.4-66c14.4 57.9-2.9 119.2-45.7 160.9zm36.5-188.5l-102.5-11.6-38.6-89.9c62 5.4 116.2 44.4 141.1 101.5zM236 75.9l-38.6 89.9-102.5 11.6c24.9-57.1 79-96.1 141.1-101.5z"/><path d="M14.6 245.1c0 130.4 105.6 236 236 236s236-105.6 236-236-105.6-236-236-236c-130.2.1-235.8 105.7-236 236zM250.6 28c119.9 0 217.1 97.2 217.1 217.1s-97.2 217.1-217.1 217.1S33.5 365 33.5 245.1c.1-119.9 97.3-217 217.1-217.1z"/><path d="M219.4 301.3l22.4 7.4c-.2.8-.5 1.7-.5 2.5v9.4c0 5.2 4.2 9.4 9.4 9.4s9.4-4.2 9.4-9.4v-5.8l15.9 5.3c2.8.9 6 .5 8.5-1.3s3.9-4.6 3.9-7.7V264c0-4-2.6-7.7-6.5-9l-50.3-16.8v-36.7l37.8 12.6v12c0 5.2 4.2 9.4 9.4 9.4s9.4-4.2 9.4-9.4v-18.9c0-4-2.6-7.7-6.5-9l-21.8-7.3v-12c0-5.2-4.2-9.4-9.4-9.4s-9.4 4.2-9.4 9.4v5.8l-15.9-5.3c-2.8-.9-6-.5-8.5 1.3s-3.9 4.6-3.9 7.7V245c0 4 2.6 7.7 6.5 9l50.2 16.8v27.3l-37.8-12.6v-2.6c0-5.2-4.2-9.4-9.4-9.4s-9.4 4.2-9.4 9.4v9.4c0 4 2.6 7.7 6.5 9z"/></svg><svg version="1.1" id="i-phone" x="0" y="0" viewBox="0 0 512 512" xml:space="preserve" xmlns="http://www.w3.org/2000/svg"><style>.bdst0{fill:#f3bb67}</style><path class="bdst0" d="M129 0c-5.5 0-10 4.5-10 10s4.5 10 10 10c56.5 0 102.5 47.2 102.5 105.1 0 5.5 4.5 10 10 10s10-4.5 10-10C251.5 56.1 196.6 0 129 0z"/><path class="bdst0" d="M129 47.4c-5.5 0-10 4.5-10 10s4.5 10 10 10c30.9 0 56.1 25.9 56.1 57.7 0 5.5 4.5 10 10 10s10-4.5 10-10c0-42.8-34.1-77.7-76.1-77.7z"/><path class="bdst0" d="M129.2 91.2c-5.5 0-10 4.5-10 10s4.5 10 10 10c7.2 0 13.1 6.1 13.1 13.7 0 5.5 4.5 10 10 10s10-4.5 10-10c0-18.6-14.8-33.7-33.1-33.7zM458.5 79.3h-22.2c-5.5 0-10 4.5-10 10s4.5 10 10 10h22.2c18.5 0 33.5 15 33.5 33.5v135.8c0 10.6-5 20.1-12.7 26.3v-26.2c0-20.4-14.6-37.9-34.6-41.7l-6.5-1.2c1.4-4.4 2.2-9.1 2.2-14v-23c0-25-20.3-45.3-45.3-45.3s-45.3 20.3-45.3 45.3v23c0 4.9.8 9.6 2.2 14l-6.5 1.2c-20.1 3.7-34.6 21.3-34.6 41.7v29c-10.1-5.8-16.9-16.7-16.9-29.1V132.8c0-18.5 15-33.5 33.5-33.5h23.8c5.5 0 10-4.5 10-10s-4.5-10-10-10h-23.8c-29.5 0-53.5 24-53.5 53.5v135.8c0 29.5 24 53.5 53.5 53.5h50.3v28.8c0 4 2.4 7.7 6.2 9.2 1.2.5 2.5.8 3.8.8 2.6 0 5.1-1 7.1-2.9l36.1-35.9h27.6c29.5 0 53.5-24 53.5-53.5V132.8c-.1-29.5-24.1-53.5-53.6-53.5zm-88.7 109.5c0-14 11.4-25.3 25.3-25.3s25.3 11.4 25.3 25.3v23c0 14-11.4 25.3-25.3 25.3s-25.3-11.4-25.3-25.3v-23zM459.2 302h-32.5c-2.6 0-5.2 1-7 2.9l-22 21.8V312c0-5.5-4.5-10-10-10h-56.9v-33.4c0-10.8 7.7-20 18.3-22l14.1-2.6c8.2 8.1 19.4 13.1 31.8 13.1 12.4 0 23.6-5 31.8-13.1l14.1 2.6c10.6 2 18.3 11.2 18.3 22V302z"/><path class="bdst0" d="M396.1 82.2c-1.9-1.9-4.4-2.9-7.1-2.9s-5.2 1.1-7.1 2.9c-1.9 1.9-2.9 4.4-2.9 7.1 0 2.6 1.1 5.2 2.9 7.1 1.9 1.9 4.4 2.9 7.1 2.9 2.6 0 5.2-1.1 7.1-2.9 1.9-1.9 2.9-4.4 2.9-7.1 0-2.7-1.1-5.2-2.9-7.1zM185.9 336.4c-1.9-1.9-4.4-2.9-7.1-2.9-2.6 0-5.2 1.1-7.1 2.9-1.9 1.9-2.9 4.4-2.9 7.1 0 2.6 1.1 5.2 2.9 7.1 1.9 1.9 4.4 2.9 7.1 2.9s5.2-1.1 7.1-2.9c1.9-1.9 2.9-4.4 2.9-7.1 0-2.6-1.1-5.2-2.9-7.1z"/><path class="bdst0" d="M404.8 426.9l-76.6-76.6c-10.2-10.2-26.2-11.7-38.1-3.6l-48.9 33.4c-4 2.7-9.3 2.2-12.7-1.2l-16.2-16.2c-3.9-3.9-10.2-3.9-14.1 0-3.9 3.9-3.9 10.2 0 14.1l16.2 16.2c10.2 10.2 26.2 11.7 38.2 3.6l48.9-33.4c4-2.7 9.3-2.2 12.7 1.2l76.6 76.6c3.9 3.9 3.9 10.2 0 14.1-49.1 49.1-129.1 49.1-178.2 0L56.8 299.6c-23.8-23.8-36.9-55.4-36.9-89.1s13.1-65.3 36.9-89.1c1.9-1.9 4.4-2.9 7.1-2.9 2.7 0 5.2 1 7.1 2.9l76.6 76.6c3.4 3.4 3.9 8.7 1.2 12.7l-33.4 48.9c-8.1 11.9-6.6 27.9 3.6 38.1l24.3 24.3c3.9 3.9 10.2 3.9 14.1 0 3.9-3.9 3.9-10.2 0-14.1l-24.3-24.3c-3.4-3.4-3.9-8.7-1.2-12.7l33.4-48.9c8.1-11.9 6.6-28-3.6-38.1l-76.6-76.6c-11.7-11.7-30.7-11.7-42.4 0-56.9 56.9-56.9 149.6 0 206.5l155.6 155.6c28.5 28.5 65.9 42.7 103.2 42.7 37.4 0 74.8-14.2 103.2-42.7 11.8-11.8 11.8-30.8.1-42.5z"/><path class="bdst0" d="M134.7 245.9l-60.6-60.6c-3.9-3.9-10.2-3.9-14.1 0-3.9 3.9-3.9 10.2 0 14.1l60.6 60.6c2 2 4.5 2.9 7.1 2.9 2.6 0 5.1-1 7.1-2.9 3.8-3.8 3.8-10.2-.1-14.1zM366.8 478L303 414.2c-3.9-3.9-10.2-3.9-14.1 0-3.9 3.9-3.9 10.2 0 14.1l63.8 63.8c2 2 4.5 2.9 7.1 2.9 2.6 0 5.1-1 7.1-2.9 3.8-3.9 3.8-10.2-.1-14.1z"/></svg><svg viewBox="0 0 484.2 484.4" id="i-phone-call" xmlns="http://www.w3.org/2000/svg"><path d="M138.7 317.2c-1.9 0-3.7-.8-5-2.2-4.7-5-9.3-10-13.8-15-2.5-2.9-2.3-7.2.6-9.8 2.9-2.5 7.2-2.3 9.8.6 4.4 4.9 8.9 9.9 13.5 14.7 2.6 2.8 2.5 7.2-.3 9.8-1.3 1.2-3 1.9-4.8 1.9z"/><path d="M397.2 484.3c-41.4 0-107.4-33.2-176.6-88.9-3-2.4-3.5-6.7-1.1-9.7 2.4-3 6.7-3.5 9.7-1.1h.1c66.8 53.8 129.6 85.9 167.9 85.9 9.3.7 18.5-2.4 25.5-8.5l46.5-46.5c1.6-1.5 1.7-4 .1-5.6l-.1-.1-93-93.1c-1.6-1.5-4.2-1.5-5.8 0L346.1 341c-.2.2-.4.4-.5.6-22.1 22-90.5-6.3-143.6-59.3s-81.3-121.5-59.3-143.6l.6-.6 24.3-24.3c1.6-1.6 1.6-4.2 0-5.8L74.5 15c-1.6-1.6-4.1-1.6-5.7-.1L22.2 61.6C-3.2 87 28.3 166.2 98.9 254.2c2.4 2.9 2 7.3-.9 9.7-2.9 2.4-7.3 2-9.7-.9l-.2-.2C10.6 166.1-19.1 83.3 12.4 51.8L58.9 5.3C62.3 1.9 66.8 0 71.6 0c4.8 0 9.4 1.9 12.7 5.3l93 92.9c7 7 7 18.3 0 25.4l-24.8 24.8c-.1.2-.3.3-.5.4-11.9 13.6 8 71.9 59.7 123.6s110 71.6 123.6 59.7c.1-.2.3-.3.4-.5l24.8-24.8c7.1-6.8 18.3-6.8 25.4 0l93 93.1c7 6.9 7.1 18.2.1 25.2l-.2.2-46.5 46.5c-9.4 8.8-22.1 13.3-35.1 12.5z"/><path d="M188 365.3c-1.7 0-3.3-.6-4.6-1.8-5.1-4.5-10.2-9.3-15.3-14-2.9-2.5-3.1-6.9-.6-9.8 2.5-2.9 6.9-3.1 9.8-.6.1.1.2.1.2.2 5 4.7 10 9.3 15 13.8 2.9 2.5 3.1 6.9.6 9.8-1.2 1.6-3.1 2.4-5.1 2.4zm-40.4-214.8c-1.8 0-3.6-.7-4.9-2L34.1 39.9c-2.7-2.7-2.8-7-.2-9.8 2.7-2.7 7-2.8 9.8-.2l.2.2 108.6 108.6c2.7 2.7 2.7 7.1 0 9.8-1.3 1.3-3 2-4.9 2zm301.6 301.6c-1.8 0-3.6-.7-4.9-2L335.7 341.5c-2.7-2.7-2.8-7-.2-9.8s7-2.8 9.8-.2l.2.2 108.6 108.6c2.7 2.7 2.7 7.1 0 9.8-1.3 1.3-3 2-4.9 2zm18.4-209.9c-3.8 0-6.9-3.1-6.9-6.9-.1-118.4-96.1-214.3-214.5-214.5-3.8 0-6.9-3.1-6.9-6.9s3.1-6.9 6.9-6.9c126 .1 228.2 102.3 228.3 228.3 0 3.8-3.1 6.9-6.9 6.9z"/><path d="M404.3 242.2c-3.8 0-6.9-3.1-6.9-6.9-.1-83.5-67.8-151.2-151.2-151.3-3.8 0-6.9-3.1-6.9-6.9 0-3.8 3.1-6.9 6.9-6.9 91.1.1 165 73.9 165.1 165.1-.1 3.8-3.2 6.9-7 6.9z"/><path d="M341.1 242.2c-3.8 0-6.9-3.1-6.9-6.9-.1-48.6-39.4-87.9-88-88-3.8 0-6.9-3.1-6.9-6.9s3.1-6.9 6.9-6.9c56.2.1 101.7 45.6 101.8 101.8 0 3.8-3.1 6.9-6.9 6.9z"/></svg><svg viewBox="0 0 196.5 271.7" id="i-play" xmlns="http://www.w3.org/2000/svg"><path d="M188.7 117.7s-.1 0-.1-.1L21.1 2.3C16.6-1 11.3-.7 6.9 3 2.6 6.7 0 13.2 0 20.4v230.8c0 7.2 2.6 13.7 6.9 17.4 2.3 2 4.9 3 7.5 3 2.2 0 4.5-.8 6.5-2.3l167.7-115.5c4.8-3.5 7.8-10.5 7.8-18.1s-2.9-14.5-7.7-18z"/></svg><svg viewBox="0 0 499.5 488.2" id="i-polylines" xmlns="http://www.w3.org/2000/svg"><path d="M409.7 103.2c30.8 0 46.5-19.5 55.8-31.2 1.9-2.5 4-4.9 6.3-7.1 3.8-.5 6.7-3.7 6.7-7.6s-2.9-7.1-6.7-7.6c-2.3-2.2-4.4-4.5-6.3-7.1-9.3-11.7-24.9-31.2-55.8-31.2S363.2 31 353.9 42.7c-1.9 2.5-4 4.9-6.3 7.1-3.8.5-6.7 3.7-6.7 7.6s2.9 7.1 6.7 7.6c2.3 2.2 4.4 4.5 6.3 7.1 5 6.6 10.7 12.6 17.1 17.9l-96.5 110.3c-8-3.5-16.7-5.3-25.4-5.2-30.8 0-46.5 19.5-55.8 31.2-1.9 2.5-4 4.9-6.2 7.1h-36.5c-2.2-2.2-4.4-4.5-6.2-7.1-9.3-11.7-24.9-31.2-55.8-31.2s-46.5 19.5-55.8 31.2c-1.9 2.5-4 4.9-6.3 7.1-3.8.4-6.7 3.7-6.7 7.6 0 3.8 2.9 7.1 6.7 7.6 2.3 2.2 4.4 4.5 6.3 7.1 9.4 11.7 24.9 31.2 55.8 31.2s46.5-19.5 55.8-31.2c1.9-2.5 4-4.9 6.2-7.1h36.5c2.2 2.2 4.4 4.5 6.2 7.1 5 6.7 10.8 12.7 17.2 18-.2.2-.5.3-.6.5L114 383.6c-8-3.5-16.7-5.3-25.4-5.2-30.8 0-46.5 19.5-55.8 31.2-1.9 2.5-4 4.9-6.3 7.1-3.8.5-6.7 3.7-6.7 7.6 0 3.8 2.9 7.1 6.7 7.6 2.3 2.2 4.4 4.5 6.3 7.1 9.4 11.7 24.9 31.2 55.8 31.2s46.5-19.5 55.8-31.2c1.9-2.5 4-4.9 6.3-7.1 3.8-.5 6.7-3.7 6.7-7.6 0-3.8-2.9-7.1-6.7-7.6-2.3-2.2-4.4-4.5-6.3-7.1-5-6.6-10.7-12.6-17.1-17.9l94.1-107.6c.7-.9 1.3-1.8 1.6-2.9 8.2 3.7 17.1 5.6 26.2 5.6 30.8 0 46.5-19.5 55.8-31.2 1.9-2.5 4-4.9 6.2-7.1h36.5c2.2 2.2 4.4 4.5 6.2 7.1 9.3 11.7 24.9 31.2 55.8 31.2s46.5-19.5 55.8-31.2c1.9-2.5 4-4.9 6.3-7.1 3.8-.5 6.7-3.7 6.7-7.6 0-3.8-2.9-7.1-6.7-7.6-2.3-2.2-4.4-4.5-6.3-7.1-9.4-11.7-24.9-31.2-55.8-31.2s-46.5 19.5-55.8 31.2c-1.9 2.5-4 4.9-6.2 7.1h-36.5c-2.2-2.2-4.4-4.5-6.2-7.1-5-6.6-10.7-12.6-17.1-17.9L384.3 98c8 3.5 16.6 5.3 25.4 5.2zM132.5 246c-8.6 10.7-20.4 25.4-43.9 25.4S53.3 256.7 44.7 246c-1.4-1.8-2.8-3.6-4.2-5.1 1.4-1.6 2.8-3.3 4.2-5.1 8.6-10.7 20.3-25.4 43.9-25.4 23.5 0 35.3 14.7 43.9 25.4 1.4 1.8 2.8 3.6 4.2 5.1-1.4 1.5-2.8 3.3-4.2 5.1zm0 173.2c1.4 1.8 2.8 3.6 4.2 5.1-1.4 1.6-2.8 3.3-4.2 5.1-8.6 10.7-20.4 25.4-43.9 25.4s-35.3-14.7-43.9-25.4c-1.4-1.8-2.8-3.6-4.2-5.1 1.4-1.6 2.8-3.3 4.2-5.1 8.6-10.7 20.3-25.4 43.9-25.4 23.5-.1 35.3 14.6 43.9 25.4zm233.3-183.5c8.6-10.7 20.4-25.4 43.9-25.4s35.3 14.7 43.9 25.4c1.4 1.8 2.8 3.6 4.2 5.1-1.4 1.6-2.8 3.3-4.2 5.1-8.6 10.7-20.3 25.4-43.9 25.4-23.5 0-35.3-14.7-43.9-25.4-1.4-1.8-2.8-3.6-4.2-5.1 1.4-1.5 2.8-3.3 4.2-5.1zm-72.8 0c1.4 1.8 2.8 3.6 4.2 5.1-1.4 1.6-2.8 3.3-4.2 5.1-8.6 10.7-20.4 25.4-43.9 25.4s-35.3-14.7-43.9-25.4c-1.4-1.8-2.8-3.6-4.2-5.1 1.4-1.6 2.8-3.3 4.2-5.1 8.6-10.7 20.3-25.4 43.9-25.4 23.5 0 35.3 14.7 43.9 25.4zm72.8-173.2c-1.4-1.8-2.8-3.6-4.2-5.1 1.4-1.6 2.8-3.3 4.2-5.1 8.6-10.7 20.4-25.4 43.9-25.4s35.3 14.7 43.9 25.4c1.4 1.8 2.8 3.6 4.2 5.1-1.4 1.6-2.8 3.3-4.2 5.1-8.6 10.7-20.3 25.4-43.9 25.4-23.5 0-35.3-14.7-43.9-25.4zM88.6 95.6c38-.1 68.7-30.8 68.8-68.8 0-4.2-3.4-7.6-7.6-7.6H27.4c-4.2 0-7.6 3.4-7.6 7.6.1 38 30.8 68.8 68.8 68.8zm21.6-61.2c-3.2 9.2-11.9 15.3-21.7 15.3-9.7 0-18.4-6.1-21.7-15.3h43.4zm-59.1 0C54.8 52.2 70.4 65 88.6 65s33.8-12.8 37.4-30.6h15.5c-3.8 26.4-26.4 45.9-53 45.9S39.3 60.8 35.6 34.4h15.5z"/><path d="M279.7 19.1H188c-4.2 0-7.6 3.4-7.6 7.6 0 38 30.8 68.8 68.8 68.8S318 64.8 318 26.8c0-4.2-3.4-7.6-7.6-7.6-.1-.1-30.7-.1-30.7-.1zm-8.9 15.3c-3.2 9.2-11.9 15.3-21.7 15.3-9.7 0-18.4-6.1-21.7-15.3h43.4zm-21.6 45.9c-26.6-.1-49.2-19.6-52.9-45.9h15.5C215.3 52.2 231 65 249.2 65s33.8-12.8 37.4-30.6h15.5c-3.8 26.4-26.4 45.9-52.9 45.9zM318 393.7c0-4.2-3.4-7.6-7.6-7.6H188c-4.2 0-7.6 3.4-7.6 7.6 0 38 30.8 68.8 68.8 68.8 37.9 0 68.8-30.7 68.8-68.8zm-47.2 7.7c-3.2 9.2-11.9 15.3-21.7 15.3-9.7 0-18.4-6.1-21.7-15.3h43.4zm-74.6 0h15.5c3.6 17.8 19.3 30.6 37.4 30.6 18.1 0 33.8-12.8 37.4-30.6H302c-3.8 26.4-26.4 45.9-52.9 45.9-26.6 0-49.2-19.6-52.9-45.9zM470.8 386.1H348.5c-4.2 0-7.6 3.4-7.6 7.6 0 38 30.8 68.8 68.8 68.8s68.8-30.8 68.8-68.8c0-4.2-3.4-7.6-7.7-7.6zm-39.5 15.3c-3.2 9.2-11.9 15.3-21.7 15.3s-18.4-6.1-21.7-15.3h43.4zm-21.6 45.9c-26.6-.1-49.2-19.6-52.9-45.9h15.5c3.6 17.8 19.3 30.6 37.4 30.6 18.2 0 33.8-12.8 37.4-30.6h15.5c-3.8 26.3-26.3 45.8-52.9 45.9z"/></svg><svg viewBox="0 0 484.3 484.4" id="i-price" xmlns="http://www.w3.org/2000/svg"><path d="M242.2 484.4C108.4 484.4 0 375.9 0 242.2 0 178 25.5 116.4 70.9 71c6.3-6.3 12.9-12.2 19.8-17.7 3-2.4 7.3-1.9 9.7 1.1 2.4 3 1.9 7.3-1.1 9.7-6.5 5.2-12.8 10.8-18.7 16.7-90.1 88.1-91.7 232.7-3.6 322.8s232.7 91.8 322.9 3.7c1.2-1.2 2.5-2.4 3.7-3.7 89.1-89.3 88.9-233.9-.4-323-52.3-52.2-126.6-75.9-199.5-63.5-3.8.4-7.2-2.4-7.5-6.2-.3-3.4 1.9-6.5 5.2-7.4 131.8-22.5 257 66.1 279.5 197.9s-66.1 257-197.9 279.5c-13.5 2.3-27.2 3.5-40.8 3.5z"/><path d="M135.8 39.3c-3.8 0-6.9-3.1-6.9-6.9 0-2.6 1.5-5 3.8-6.2 6.2-3.2 12.7-6.1 19.2-8.8 3.5-1.4 7.6.3 9 3.8 1.4 3.5-.3 7.6-3.8 9-6.1 2.5-12.2 5.2-18.1 8.3-1.1.5-2.2.8-3.2.8zm106.4 382.8c-99.4 0-179.9-80.5-179.9-179.9S142.8 62.3 242.2 62.3s179.9 80.5 179.9 179.9c-.2 99.3-80.6 179.8-179.9 179.9zm0-346c-91.7 0-166.1 74.3-166.1 166.1s74.3 166.1 166.1 166.1S408.3 334 408.3 242.2c-.2-91.7-74.5-165.9-166.1-166.1z"/><path d="M477.4 249.1h-62.3c-3.8 0-6.9-3.1-6.9-6.9s3.1-6.9 6.9-6.9h62.3c3.8 0 6.9 3.1 6.9 6.9s-3.1 6.9-6.9 6.9zm-408.2 0H6.9c-3.8 0-6.9-3.1-6.9-6.9s3.1-6.9 6.9-6.9h62.3c3.8 0 6.9 3.1 6.9 6.9s-3.1 6.9-6.9 6.9zm173 235.3c-3.8 0-6.9-3.1-6.9-6.9v-62.3c0-3.8 3.1-6.9 6.9-6.9s6.9 3.1 6.9 6.9v62.3c0 3.8-3.1 6.9-6.9 6.9zm0-408.3c-3.8 0-6.9-3.1-6.9-6.9V7c0-3.8 3.1-6.9 6.9-6.9s6.9 3.1 6.9 6.9v62.3c0 3.7-3.1 6.8-6.9 6.8zM75.8 415.5c-3.8 0-6.9-3.1-6.9-6.9 0-1.8.7-3.6 2-4.9l44-44c2.7-2.7 7.1-2.6 9.8.2 2.6 2.7 2.6 6.9 0 9.6l-44 44c-1.3 1.2-3 2-4.9 2zm288.7-288.7c-3.8 0-6.9-3.1-6.9-6.9 0-1.8.7-3.6 2-4.9l44-44c2.7-2.7 7.1-2.7 9.8 0 2.7 2.7 2.7 7.1 0 9.8l-44 44c-1.3 1.3-3.1 2-4.9 2zm44 288.7c-1.8 0-3.6-.7-4.9-2l-44-44c-2.7-2.7-2.6-7.1.2-9.8 2.7-2.6 6.9-2.6 9.6 0l44 44c2.7 2.7 2.7 7.1 0 9.8-1.3 1.2-3.1 2-4.9 2zM119.8 126.8c-1.8 0-3.6-.7-4.9-2l-44-44c-2.7-2.7-2.7-7.1 0-9.8s7.1-2.7 9.8 0l44 44c2.7 2.7 2.7 7.1 0 9.8-1.3 1.3-3 2-4.9 2zm122.4 122.3c-27.3 0-49.4-22.1-49.4-49.4 0-27.3 22.1-49.4 49.4-49.4s49.4 22.1 49.4 49.4c0 3.8-3.1 6.9-6.9 6.9-3.8 0-6.9-3.1-6.9-6.9 0-19.7-15.9-35.6-35.6-35.6s-35.6 15.9-35.6 35.6 15.9 35.6 35.6 35.6c3.8 0 6.9 3.1 6.9 6.9s-3.1 6.9-6.9 6.9z"/><path d="M242.2 334.2c-27.3 0-49.4-22.2-49.4-49.4 0-3.8 3.1-6.9 6.9-6.9s6.9 3.1 6.9 6.9c0 19.7 15.9 35.6 35.6 35.6s35.6-15.9 35.6-35.6c0-19.7-15.9-35.6-35.6-35.6-3.8 0-6.9-3.1-6.9-6.9s3.1-6.9 6.9-6.9c27.3 0 49.4 22.1 49.4 49.4 0 27.2-22.1 49.4-49.4 49.4z"/><path d="M242.2 351.2c-3.8 0-6.9-3.1-6.9-6.9V140.1c0-3.8 3.1-6.9 6.9-6.9s6.9 3.1 6.9 6.9v204.1c0 3.9-3.1 7-6.9 7z"/></svg><svg viewBox="0 0 499.5 488.2" id="i-progressive" xmlns="http://www.w3.org/2000/svg"><path d="M478.4 110.8H386v-38c0-5.5-4.2-10-9.2-10h-97.7c-5.1 0-9.2 4.5-9.2 10s4.2 10 9.2 10h88.5v70.8C320.1 228 290.1 329.9 288 422.7h-81.2c3.3-92.8 51.7-194.5 99.8-255.9 2.3-3 2.9-7.1 1.3-10.7-1.6-3.6-4.8-5.8-8.4-5.8h-93.3c-5.1 0-9.2 4.5-9.2 10V174h-62.2V82.8h88.8c5.1 0 9.2-4.5 9.2-10s-4.2-10-9.2-10h-98c-5.1 0-9.2 4.5-9.2 10v38H23.9c-5.1 0-9.2 4.5-9.2 10v80.5c0 5.5 4.2 10 9.2 10h45.2c5.1 0 9.2-4.5 9.2-10v-7.1H131c-14.8 21.6-28.4 46.6-39 72.2-16.5 39.7-25.2 79.2-25.2 114.4 0 5.5 4.2 10 9.2 10h72.3c5.1 0 9.2-4.5 9.2-10 0-65.8 20.6-136.7 55.1-189.7v-.1c1.6-1.8 2.6-4.2 2.6-6.9v-13.7H280c-21.9 31-42 67.7-57.6 105.4-22.5 54.5-34.5 108.8-34.5 156.9 0 5.5 4.2 10 9.2 10h99.8c5.1 0 9.2-4.5 9.2-10 0-80.1 22.4-168.3 59.5-238.6H403c-14.8 21.6-28.4 46.6-39 72.2-16.5 39.7-25.2 79.3-25.2 114.5 0 5.5 4.2 10 9.2 10h72.3c5.1 0 9.2-4.5 9.2-10 0-66.3 21.5-140.5 56.1-193.6 1.1-1.7 1.7-3.7 1.7-5.8v-60.6c.4-5.5-3.8-10-8.9-10zm-362.1 63.3H69.1c-5.1 0-9.2 4.5-9.2 10v7.1H33.2v-60.4h83.1v43.3zm23 196.7H85.6c3.1-63.8 35.8-133.1 68.9-176.7h34.3c-29.6 51.5-47.6 115.7-49.5 176.7zm329.9-192.5c-34 53.4-55.6 126-57.6 192.5h-53.8c3.2-65.6 37.6-136.9 71.7-180.2 2.3-3 2.9-7.1 1.4-10.7-1.5-3.5-4.8-5.8-8.4-5.8h-45.3c2.4-4 4.8-7.9 7.3-11.7 1.1-1.7 1.7-3.7 1.7-5.7v-25.9h83.1l-.1 47.5z"/><path d="M251.3 62.8c-5.2 0-9.3 4.5-9.3 10s4.2 10 9.2 10h.1c5.1 0 9.2-4.5 9.2-10s-4.1-10-9.2-10z"/></svg><svg viewBox="0 0 499.5 488.2" id="i-reels" xmlns="http://www.w3.org/2000/svg"><path d="M106.6 368.4c21.2 0 38.3-17.1 38.3-38.2 0-17.8-12.2-33.3-29.6-37.3-1.9-19.5 12.1-37 31.5-39.7l-3.8-18.8c-28.7 4.2-49.4 29.9-47 58.9-20.4 5.7-32.1 26.8-26.5 47.2 4.8 16.5 19.9 27.9 37.1 27.9zm0-57.5c10.5 0 19.2 8.6 19.2 19.2 0 10.5-8.6 19.2-19.2 19.2s-19.2-8.6-19.2-19.2 8.6-19.2 19.2-19.2zM292.9 253.1l-3.8-18.8c-28.7 4.2-49.4 29.9-47 58.9-20.2 5.9-32 27.1-26.1 47.3 5.9 20.2 27.1 32 47.3 26.1 20.2-5.9 32-27.1 26.1-47.3-3.8-13.3-14.6-23.5-28.2-26.6-1.8-19.4 12.2-37 31.7-39.6zm-21 76.9c0 10.5-8.6 19.2-19.2 19.2s-19.2-8.6-19.2-19.2c0-10.5 8.6-19.2 19.2-19.2s19.2 8.7 19.2 19.2zM434.3 253.1l-3.8-18.8c-28.7 4.2-49.4 29.9-47 58.9-20.2 5.9-32 27.1-26.1 47.3 5.9 20.2 27.1 32 47.3 26.1 20.2-5.9 32-27.1 26.1-47.3-3.8-13.3-14.6-23.5-28.2-26.6-1.8-19.4 12.2-37 31.7-39.6zM413.2 330c0 10.5-8.6 19.2-19.2 19.2-10.5 0-19.2-8.6-19.2-19.2 0-10.5 8.6-19.2 19.2-19.2 10.6.1 19.2 8.7 19.2 19.2z"/><path d="M231.3 464.2v-47.9h45.9v38.3H268c-5 0-9.2 4.3-9.2 9.6m165.2 9.6h9.2c5 0 9.2-4.3 9.2-9.6v-47.9H470c5 0 9.2-4.3 9.2-9.6V195.9c0-5.3-4.1-9.6-9.2-9.6h-90.2l16.8-113.6c.8-5.3-2.6-10.2-7.7-10.9-3.1-.5-6.3.7-8.4 3.2l-89 109.8-32.9-153.5c-1.1-5.2-6-8.5-10.9-7.3-3.5.8-6.2 3.7-6.9 7.3L208 175.8 119 74.3c-3.5-4-9.2-4.2-12.9-.6-2.3 2.2-3.4 5.4-2.9 8.6l16.5 103.9H29.5c-5 0-9.2 4.3-9.2 9.6v210.8c0 5.3 4.1 9.6 9.2 9.6h36.7v38.3H47.9c-5 0-9.2 4.3-9.2 9.6v9.2m334.5-369.9L361 186.3h-54.9l67.1-82.9zm-59.3 293.7H185.4V205.5h128.4v191.7h.1zM249.7 67.6L275 186.3h-50.6l25.3-118.7zm-123.5 43.6l65.9 75.1h-53.9l-12-75.1zM20.3 263v76.7m18.3-134.2H167v191.7H38.6V205.5zm174.3 249.1H84.5v-38.3h18.3v19.2h18.3v-19.2h18.3v19.2h18.3v-19.2H176v19.2h18.3v-19.2h18.3l.3 38.3zm211.1 0H295.5v-38.3h18.3v19.2h18.3v-19.2h18.3v19.2h18.4v-19.2h18.3v19.2h18.3v-19.2H424v38.3zm36.7-57.5H332.2V205.5h128.4l.1 191.6z"/></svg><svg viewBox="0 0 499.5 488.2" id="i-rows" xmlns="http://www.w3.org/2000/svg"><path d="M464.3 205.7h-427c-3.9 0-7.1 3.2-7.1 7.1v242c0 3.9 3.2 7.1 7.1 7.1h427c3.9 0 7.1-3.2 7.1-7.1v-242c0-3.9-3.2-7.1-7.1-7.1zm-7.1 242H44.3V220h412.8v227.7z"/><path d="M65.7 433.5h370.1c3.9 0 7.1-3.2 7.1-7.1V241.3c0-3.9-3.2-7.1-7.1-7.1H65.7c-3.9 0-7.1 3.2-7.1 7.1v185.1c0 3.9 3.2 7.1 7.1 7.1zm135.2-14.3V248.4h99.6v170.8h-99.6zm227.8 0H314.8V248.4h113.9v170.8zM72.8 248.4h113.9v170.8H72.8V248.4z"/><path d="M165.3 276.9h-56.9c-3.9 0-7.1 3.2-7.1 7.1v28.5h14.2v-21.4h42.7v25.6c-18.4 19.4-28.5 44.8-28.5 71.6v2.4H144v-2.4c0-24 9.3-46.7 26.4-63.7 1.3-1.3 2-3.1 2-5.1V284c.1-3.9-3.1-7.1-7.1-7.1zM279.2 276.9h-56.9c-3.9 0-7.1 3.2-7.1 7.1v28.5h14.2v-21.4h42.7v25.6c-18.4 19.4-28.5 44.8-28.5 71.6v2.4h14.2v-2.4c0-24 9.3-46.7 26.4-63.7 1.3-1.3 2-3.1 2-5.1V284c.1-3.9-3.1-7.1-7-7.1zM343.3 312.5v-21.4H386v25.6c-18.4 19.4-28.5 44.8-28.5 71.6v2.4h14.2v-2.4c0-24 9.3-46.7 26.4-63.7 1.3-1.3 2-3.1 2-5.1V284c0-3.9-3.2-7.1-7.1-7.1h-56.9c-3.9 0-7.1 3.2-7.1 7.1v28.5h14.3zM168.5 90.7l38.5 25.7-13 52c-.7 2.8.4 6 2.9 7.6 2.5 1.7 5.7 1.6 8.2-.1l45.7-32.7 45.7 32.7c1.2.9 2.7 1.3 4.1 1.3s2.8-.4 4-1.2c2.5-1.7 3.6-4.7 2.9-7.6l-13-52L333 90.7c2.5-1.6 3.6-4.6 3-7.5-.6-2.8-3-5.1-6-5.5L283.7 71l-26.8-46.8c-2.5-4.4-9.8-4.4-12.4 0L217.8 71l-46.4 6.6c-2.9.4-5.2 2.6-6 5.5-.5 3 .7 5.9 3.1 7.6zm54.8-6.1c2.1-.4 4.1-1.6 5.2-3.6l22.2-39L273 81c1.1 1.9 3 3.2 5.2 3.6l31.4 4.4-27.2 18.1c-2.5 1.7-3.6 4.7-2.9 7.7L289 153l-34.1-24.4c-1.2-.9-2.7-1.3-4.2-1.3s-2.9.4-4.1 1.3l-34.1 24.5L222 115c.7-2.9-.4-6-2.9-7.7l-27.2-18.1 31.4-4.6zM58 144.8l-6.4 38.4c-.4 2.8.7 5.5 3 7 2.3 1.6 5.2 1.7 7.7.2l31.9-19.1 31.9 19.1c1.2.7 2.4 1 3.6 1 1.4 0 2.8-.4 4-1.2 2.3-1.6 3.5-4.3 3-7l-6.4-38.4 25-18.8c2.2-1.7 3.3-4.5 2.7-7.3-.6-2.8-2.8-4.9-5.5-5.4l-32.2-6.4-19.8-39.5c-2.4-4.8-10.3-4.8-12.7 0L68 106.9l-32.2 6.4c-2.8.5-4.9 2.7-5.5 5.4-.6 2.8.4 5.6 2.7 7.3l25 18.8zm16.2-24.7c2.1-.4 4-1.9 5-3.8l14.9-29.9 14.9 30c1 2 2.8 3.4 5 3.8l20 4-15.7 11.8c-2.1 1.6-3.2 4.3-2.8 6.9l4.6 27.5L97.9 157c-1.2-.7-2.4-1-3.6-1-1.2 0-2.5.4-3.6 1l-22.3 13.4 4.6-27.5c.4-2.6-.6-5.2-2.8-6.9l-15.7-11.8 19.7-4.1zM371.1 144.8l-6.4 38.4c-.4 2.8.7 5.5 3 7 2.3 1.6 5.2 1.7 7.7.2l31.9-19.1 31.9 19.1c1.2.7 2.4 1 3.6 1 1.4 0 2.8-.4 4-1.2 2.3-1.6 3.5-4.3 3-7l-6.4-38.4 25-18.8c2.2-1.7 3.3-4.5 2.7-7.3-.6-2.8-2.8-4.9-5.5-5.4l-32.2-6.4-19.8-39.6c-2.4-4.8-10.3-4.8-12.7 0l-19.8 39.6-32.2 6.4c-2.8.5-4.9 2.7-5.5 5.4-.6 2.8.4 5.6 2.7 7.3l25 18.8zm16.3-24.7c2.1-.4 4-1.9 5-3.8l14.9-29.9 14.9 30c1 2 2.8 3.4 5 3.8l20 4-15.7 11.8c-2.1 1.6-3.2 4.3-2.8 6.9l4.6 27.5-22.2-13.4c-1.2-.7-2.4-1-3.6-1-1.2 0-2.5.4-3.6 1l-22.3 13.4 4.6-27.5c.4-2.6-.6-5.2-2.8-6.9l-15.7-11.8 19.7-4.1z"/></svg><svg viewBox="0 0 499.5 488.2" id="i-rtp" xmlns="http://www.w3.org/2000/svg"><path d="M100.8 76.2h16v16h-16v-16zM148.8 60.2h16v16h-16v-16zM196.8 44.2h16v16h-16v-16zM388.8 76.2h16v16h-16v-16zM340.8 60.2h16v16h-16v-16zM292.8 44.2h16v16h-16v-16zM252.8 292.1v16c48.6-.1 87.9-39.4 88-88h-16c0 39.9-32.3 72-72 72zM252.8 148.2v-16c-48.6.1-87.9 39.4-88 88h16c.1-39.7 32.3-71.9 72-72z"/><path d="M252.8 100.2c-66.3 0-120 53.7-120 120s53.7 120 120 120 120-53.7 120-120c-.2-66.2-53.8-119.9-120-120zm0 223.9c-57.4 0-104-46.6-104-104s46.6-104 104-104 104 46.6 104 104-46.7 104-104 104z"/><path d="M447 61.5l-192-56c-1.5-.4-3-.4-4.5 0l-192 56c-3.6 1.1-6 4.5-5.8 8.3l24 304c.2 2.6 1.6 4.9 3.8 6.2l168 103c2.6 1.6 5.8 1.6 8.4 0l168-103c2.2-1.3 3.6-3.6 3.8-6.2l24-304c.3-3.7-2.1-7.2-5.7-8.3zM73 123.3l27.7 13.9V314l-11.2 18.6L73 123.3zm179.8 343.5L92.4 368.4l-.7-8.4 23.9-39.8c.7-1.2 1.1-2.7 1.1-4.1v-184c0-3-1.7-5.8-4.4-7.2l-40.8-20.3L69.2 75l183.5-53.6L436.3 75l-2.3 29.6-40.8 20.4c-2.7 1.4-4.4 4.1-4.4 7.2v184c0 1.5.4 2.9 1.1 4.1l23.9 39.8-.7 8.4-160.3 98.3zM416 332.5l-11.2-18.6V137.2l27.7-13.9L416 332.5z"/><path d="M260.8 260.1v-8.4c10.8-2.2 17.8-12.8 15.6-23.6-1.9-9.3-10.1-16-19.6-16h-8c-2.2 0-4-1.8-4-4s1.8-4 4-4h8c2.2 0 4 1.8 4 4h16c0-9.5-6.7-17.7-16-19.6v-8.4h-16v8.4c-10.8 2.2-17.8 12.8-15.6 23.6 1.9 9.3 10.1 16 19.6 16h8c2.2 0 4 1.8 4 4s-1.8 4-4 4h-8c-2.2 0-4-1.8-4-4h-16c0 9.5 6.7 17.7 16 19.6v8.4h16z"/><path d="M316.8 220.2c0-35.3-28.7-64-64-64s-64 28.7-64 64 28.7 64 64 64c35.3-.1 64-28.7 64-64zm-112 0c0-26.5 21.5-48 48-48s48 21.5 48 48-21.5 48-48 48-48-21.5-48-48zM108.8 356.1h16v16h-16v-16zM140.8 372.1h16v16h-16v-16zM172.8 388.1h16v16h-16v-16zM204.8 404.1h16v16h-16v-16zM244.8 420.1h16v16h-16v-16zM380.8 356.1h16v16h-16v-16zM348.8 372.1h16v16h-16v-16zM316.8 388.1h16v16h-16v-16zM284.8 404.1h16v16h-16v-16zM244.8 36.2h16v16h-16v-16z"/></svg><svg viewBox="0 0 499.5 488.2" id="i-scatter-symbol" xmlns="http://www.w3.org/2000/svg"><path d="M466.4 29.5H336.3c-10.9 0-20.3 7.4-22.9 18l-44.7 183.7c-.7 2.9-.6 5.8.3 8.5l-18.4 18.4c-11.8 11.8-18.7 27.3-19.5 43.9h-2.8c-4.1 0-7.5 3.4-7.5 7.5s3.4 7.5 7.5 7.5h3.7c2.3 13.5 8.7 26 18.7 35.9l4 4c20.2 20.2 20.2 53.2 0 73.5-.5.5-.9.9-1.5 1.4l-1.4-2c-2.3-3.5-7-4.3-10.4-2-3.4 2.3-4.3 7-2 10.4l1.4 2.1c-19.4 9.5-43.6 6.2-59.7-9.9l-31.9-31.9a95.86 95.86 0 0 0-22.3-16.6l1.5-3c1.9-3.7.4-8.2-3.3-10.1-3.7-1.9-8.2-.4-10.1 3.3l-1.9 3.7c-33.6-11.6-72.5-4.1-99.2 22.7l-1.8 1.8c-2.9 2.9-2.9 7.7 0 10.6 2.9 2.9 7.7 2.9 10.6 0l1.8-1.8c22-22 53.8-28.6 81.6-19.7l-.5 1c-1.9 3.7-.4 8.2 3.3 10.1 1.1.6 2.2.8 3.4.8 2.7 0 5.3-1.5 6.7-4.1l.9-1.9c6.7 3.7 12.9 8.2 18.6 13.8l31.9 31.9c12.7 12.7 29.5 19.6 47.4 19.6 11.2 0 21.8-2.7 31.4-7.8l1.6 2.3c1.5 2.2 3.8 3.3 6.2 3.3 1.5 0 2.9-.5 4.2-1.3 3.5-2.3 4.3-7 2-10.4l-1.6-2.4c1.2-1 2.4-2.2 3.6-3.3 12.7-12.7 19.6-29.5 19.6-47.4s-6.9-34.8-19.6-47.4l-4-4c-7.2-7.2-11.8-16-13.9-25.2h2.6c4.1 0 7.5-3.4 7.5-7.5s-3.4-7.5-7.5-7.5h-3.7c.8-12.1 5.8-24 15.1-33.3l18.4-18.4c1.5.5 3.1.7 4.7.7 1.3 0 2.5-.2 3.8-.5L472 205.9c10.6-2.5 18-12 18-22.9V53c-.1-12.9-10.7-23.5-23.6-23.5zM296.9 233.1L403 127l64.6 64.6-170.7 41.5zm178-55.5l-61.2-61.2 45.7-45.7c2.9-2.9 2.9-7.7 0-10.6s-7.7-2.9-10.6 0l-45.7 45.7-11.7-11.7c-2.9-2.9-7.7-2.9-10.6 0-2.9 2.9-2.9 7.7 0 10.6l11.6 11.7-106.1 106.1 41.5-170.7L358 82c1.5 1.5 3.4 2.2 5.3 2.2s3.8-.7 5.3-2.2c2.9-2.9 2.9-7.7 0-10.6l-26.9-26.9h124.5c4.7 0 8.5 3.8 8.5 8.5l.2 124.6z"/></svg><svg viewBox="0 0 499.5 488.2" id="i-slot-type" xmlns="http://www.w3.org/2000/svg"><path d="M225.5 443.9c24.1 0 43.8-19.6 43.8-43.8v-35c0-3.8-3.1-6.9-6.9-6.9H151.8c-3.8 0-6.9 3.1-6.9 6.9v35c0 24.2 19.6 43.8 43.8 43.8h36.8zm-66.8-43.8V372h96.6v28.1c0 16.5-13.4 29.9-29.9 29.9h-36.8c-16.5 0-29.9-13.4-29.9-29.9z"/><path d="M481 203.1c0-22.1-18-40-40-40s-40.1 18-40.1 40c0 19.5 14 35.8 32.5 39.3l-9.3 106c-1.4 15.6-14.2 27.3-29.8 27.3h-10.9V263.8c0-3.8-3.1-6.9-6.9-6.9-3.8 0-6.9 3.1-6.9 6.9v63.1H269.2v-115h100.4v19.8c0 3.8 3.1 6.9 6.9 6.9s6.9-3.1 6.9-6.9v-70.9c0-34.3-27.9-62.2-62.2-62.2h-52.1V72.4c0-3.8-3.1-6.9-6.9-6.9H260V49.1c0-22.4-18.2-40.7-40.7-40.7h-29.2c-22.4 0-40.7 18.2-40.7 40.7v16.4h-2.3c-3.8 0-6.9 3.1-6.9 6.9v26.3H89.3c-34.3 0-62.2 27.8-62.2 62.1v289.1c0 13.9 11.4 25.3 25.3 25.3h19.3c3.8 0 6.9-3.1 6.9-6.9s-3.1-6.9-6.9-6.9H52.4c-6.4 0-11.5-5.2-11.5-11.5v-109h328.6V450c0 6.4-5.2 11.5-11.5 11.5H104c-3.8 0-6.9 3.1-6.9 6.9 0 3.8 3.1 6.9 6.9 6.9h254c13.9 0 25.3-11.4 25.3-25.3v-60.3h10.9c22.8 0 41.6-17.1 43.6-39.9l9.4-107c19.1-3.2 33.8-19.8 33.8-39.7zm-317.6-154c0-14.8 12-26.9 26.9-26.9h29.2c14.8 0 26.9 12 26.9 26.9v16.4h-82.9l-.1-16.4zm-9.2 30.2h101.3v19.3H154.2V79.3zM40.9 160.7c0-26.6 21.7-48.3 48.3-48.3h232c26.6 0 48.3 21.7 48.3 48.3V198H40.9v-37.3zm0 51.2h100.4v115H40.9v-115zm114.2 0h100.4v115H155.1v-115zm285.8 17.5c-14.5 0-26.3-11.8-26.3-26.3s11.8-26.3 26.3-26.3 26.3 11.8 26.3 26.3-11.8 26.3-26.3 26.3z"/><path d="M232.9 222h-55.2c-3.8 0-6.9 3.1-6.9 6.9s3.1 6.9 6.9 6.9H226v17l-5.7 3.7c-13.8 9.2-22 24.5-22 41v14.1c0 3.8 3.1 6.9 6.9 6.9s6.9-3.1 6.9-6.9v-14.1c0-11.9 5.9-23 15.8-29.5l8.8-5.8c1.9-1.3 3.1-3.5 3.1-5.7v-27.6c0-3.8-3.1-6.9-6.9-6.9zM334.4 256.6c-13.8 9.2-22 24.5-22 41v14.1c0 3.8 3.1 6.9 6.9 6.9s6.9-3.1 6.9-6.9v-14.1c0-11.9 5.9-23 15.8-29.5l8.8-5.8c1.9-1.3 3.1-3.5 3.1-5.7V229c0-3.8-3.1-6.9-6.9-6.9h-55.2c-3.8 0-6.9 3.1-6.9 6.9 0 3.8 3.1 6.9 6.9 6.9h48.3v17l-5.7 3.7zM118.7 222H63.5c-3.8 0-6.9 3.1-6.9 6.9s3.1 6.9 6.9 6.9h48.3v17l-5.7 3.7c-13.8 9.2-22 24.5-22 41v14.1c0 3.8 3.1 6.9 6.9 6.9 3.8 0 6.9-3.1 6.9-6.9v-14.1c0-11.9 5.9-23 15.8-29.5l8.8-5.8c1.9-1.3 3.1-3.5 3.1-5.7v-27.6c0-3.8-3.1-6.9-6.9-6.9z"/></svg><svg viewBox="0 0 499.5 488.2" id="i-software" xmlns="http://www.w3.org/2000/svg"><path d="M238 345.2c-2.3 0-4.7 1-6.4 2.6-1.7 1.7-2.6 3.9-2.6 6.4 0 2.3 1 4.7 2.6 6.4 1.7 1.7 3.9 2.6 6.4 2.6 2.4 0 4.7-1 6.4-2.6 1.7-1.7 2.6-3.9 2.6-6.4 0-2.3-1-4.7-2.6-6.4-1.7-1.7-4-2.6-6.4-2.6zM409.2 318.3c-2.3 0-4.7 1-6.4 2.6-1.7 1.7-2.6 3.9-2.6 6.4 0 2.3 1 4.7 2.6 6.4 1.7 1.7 3.9 2.6 6.4 2.6 2.3 0 4.7-1 6.4-2.6 1.7-1.7 2.6-3.9 2.6-6.4s-1-4.7-2.6-6.4c-1.8-1.6-4.1-2.6-6.4-2.6zM143.9 275.2c-2.3 0-4.7 1-6.4 2.6-1.7 1.7-2.6 3.9-2.6 6.4s1 4.7 2.6 6.4c1.7 1.7 3.9 2.6 6.4 2.6 2.4 0 4.7-1 6.4-2.6 1.7-1.7 2.6-3.9 2.6-6.4s-1-4.7-2.6-6.4c-1.6-1.7-4-2.6-6.4-2.6z"/><path d="M481 115.2c0-4.9-4-9-9-9h-13.8a99.6 99.6 0 0 0-7.5-18.2l9.8-9.8c3.5-3.5 3.5-9.1 0-12.6l-27.3-27.3c-3.5-3.5-9.1-3.5-12.6 0l-9.8 9.8c-5.8-3.1-11.8-5.6-18.2-7.5V26.8c0-4.9-4-9-9-9h-38.5c-4.9 0-9 4-9 9v13.8c-6.3 1.9-12.4 4.4-18.1 7.5l-9.8-9.8c-3.5-3.5-9.1-3.5-12.6 0l-27.3 27.3c-2.2 2.2-3 5.1-2.5 7.8H57.9C38.2 73.5 22 89.6 22 109.3v247.4c0 19.8 16.1 35.9 35.9 35.9h142.4v30.5h-21.5c-17.8 0-32.3 14.5-32.3 32.3V468c0 4.9 4 9 9 9h164.9c4.9 0 9-4 9-9v-12.5c0-17.8-14.5-32.3-32.3-32.3h-21.5v-30.5H418c19.8 0 35.9-16.1 35.9-35.9V209.9l6.5-6.5c1.7-1.7 2.6-3.9 2.6-6.4 0-2.4-1-4.7-2.6-6.4l-9.8-9.8c3.1-5.7 5.6-11.8 7.5-18.1H472c2.4 0 4.7-1 6.4-2.6s2.6-3.9 2.6-6.4v-38.5zM311.5 455.4v3.6h-147v-3.6c0-7.9 6.5-14.3 14.3-14.3H297c8.1 0 14.5 6.4 14.5 14.3zm-53.7-32.3h-39.4v-30.5h39.4v30.5zM436 356.8c0 9.9-8.1 17.9-17.9 17.9H57.9c-9.9 0-17.9-8.1-17.9-17.9v-20.5h333.3c4.9 0 9-4 9-9s-4-9-9-9H40v-25.2h68.4c4.9 0 9-4 9-9s-4-9-9-9H40V109.4c0-9.9 8.1-17.9 17.9-17.9h218.7c-2.3 4.8-4.3 9.7-5.8 14.8h-13.9c-2.4 0-4.7 1-6.4 2.6s-2.6 3.9-2.6 6.4v38.5c0 4.9 4 9 9 9h14c1.9 6.3 4.4 12.3 7.4 18l-9.9 9.9c-3.5 3.5-3.5 9.1 0 12.6l27.3 27.3c3.5 3.5 9.1 3.5 12.6 0l9.9-9.9c5.7 3.1 11.8 5.6 18 7.4v14c0 4.9 4 9 9 9h38.5c4.9 0 9-4 9-9v-13.9c6.3-1.9 12.3-4.4 18.1-7.4l9.9 9.9c1.7 1.7 3.9 2.6 6.4 2.6 2.4 0 4.7-1 6.4-2.6l2.7-2.7-.2 128.8zm27.1-212h-11.8c-4.2 0-7.8 3-8.8 7-2.1 9.1-5.6 17.7-10.7 25.6-2.2 3.5-1.8 8.2 1.2 11.2l8.3 8.3-14.5 14.5-8.4-8.4c-2.7-2.7-6.9-3.4-10.3-1.7-.3.2-.5.3-.8.4-7.9 5-16.5 8.6-25.6 10.6-4.1.9-7.1 4.6-7.1 8.8V233H354v-11.9c0-4.2-3-7.9-7-8.8-9.1-2-17.7-5.6-25.5-10.6-1.4-.9-3.1-1.4-4.8-1.4-2.4 0-4.7 1-6.4 2.6l-8.4 8.4-14.5-14.5 8.4-8.4c3-3 3.5-7.6 1.2-11.2-5-7.9-8.6-16.5-10.6-25.5-.9-4.1-4.6-7-8.8-7h-11.7v-20.5h11.9c4.2 0 7.9-3 8.8-7.1 2-9.1 5.6-17.7 10.6-25.5 2.2-3.5 1.8-8.2-1.2-11.2l-8.4-8.4 14.5-14.5 8.3 8.3c3 3 7.8 3.4 11.3 1.2 7.9-5 16.4-8.5 25.5-10.6 4.1-.9 7-4.6 7-8.8V35.7h20.5v11.7c0 4.2 3 7.9 7.1 8.8 9.1 2 17.7 5.6 25.6 10.7.3.2.5.4.8.4 3.4 1.7 7.6 1.1 10.3-1.7l8.3-8.3 14.5 14.5-8.3 8.3c-.4.4-.8.9-1.1 1.3-2 3-2 6.8-.1 9.8 5 7.9 8.6 16.5 10.6 25.6.9 4.1 4.6 7.1 8.8 7.1H463v20.9h.1z"/><path d="M364.5 78.9c-30.7 0-55.6 24.9-55.6 55.6s24.9 55.6 55.6 55.6 55.6-24.9 55.6-55.6-24.9-55.6-55.6-55.6zm0 93.2c-20.8 0-37.6-16.9-37.6-37.6s16.9-37.6 37.6-37.6c20.8 0 37.6 16.9 37.6 37.6s-16.8 37.6-37.6 37.6zM168.8 185.8c-2.3 0-4.7 1-6.4 2.6-1.7 1.7-2.6 3.9-2.6 6.4 0 2.3 1 4.7 2.6 6.4 1.7 1.7 3.9 2.6 6.4 2.6 2.3 0 4.7-1 6.4-2.6 1.7-1.7 2.6-3.9 2.6-6.4 0-2.3-1-4.7-2.6-6.4-1.7-1.6-4-2.6-6.4-2.6z"/><path d="M238.7 179.1c.6-2.3.3-4.8-.9-6.8l-15.1-26.2c-2.5-4.3-8-5.7-12.3-3.3l-8.6 5c-2.9-2-5.8-3.8-9-5.2v-10c0-4.9-4-9-9-9h-30.3c-4.9 0-9 4-9 9v10c-3.1 1.4-6.1 3.2-9 5.2l-8.6-5a9 9 0 0 0-6.8-.9c-2.3.6-4.2 2.2-5.5 4.2l-15.1 26.2c-2.5 4.3-1 9.8 3.3 12.3l8.6 5c-.2 1.7-.3 3.4-.3 5.2 0 1.8.1 3.5.3 5.2l-8.6 5c-4.3 2.5-5.7 8-3.3 12.3l15.1 26.2c1.2 2.1 3.1 3.6 5.5 4.2s4.8.3 6.8-.9l8.6-5c2.9 2 5.8 3.8 9 5.2v10c0 4.9 4 9 9 9h30.3c4.9 0 9-4 9-9v-10c3.1-1.4 6.1-3.2 9-5.2l8.6 5c4.3 2.5 9.8 1 12.3-3.3l15.1-26.2a9 9 0 0 0 .9-6.8c-.6-2.3-2.2-4.2-4.2-5.5l-8.6-5c.2-1.7.3-3.4.3-5.2 0-1.8-.1-3.5-.3-5.2l8.6-5c2.2-1.2 3.6-3.1 4.2-5.5zm-31.2 7.6c.5 2.6.8 5.4.8 8.1s-.3 5.5-.8 8.1c-.8 3.8 1 7.6 4.3 9.6l6.1 3.5-6.2 10.7-6.1-3.6c-3.3-2-7.5-1.5-10.5 1.1-4.1 3.7-8.8 6.4-14 8.1-3.7 1.2-6.2 4.7-6.2 8.5v7.1h-12.4v-7.1c0-3.9-2.5-7.4-6.2-8.5-5.2-1.7-9.9-4.4-14-8.1-2.9-2.6-7.1-3-10.5-1.1l-6.1 3.6-6.2-10.7 6.1-3.5c3.3-2 5.1-5.8 4.3-9.6-.5-2.6-.8-5.4-.8-8.1s.3-5.5.8-8.1c.8-3.8-1-7.6-4.3-9.6l-6.1-3.5 6.2-10.7 6.1 3.6c3.3 2 7.5 1.5 10.5-1.1 4.1-3.7 8.8-6.4 14-8.1 3.7-1.2 6.2-4.7 6.2-8.5v-7.2h12.4v7.1c0 3.9 2.5 7.4 6.2 8.5 5.2 1.7 9.9 4.4 14 8.1 2.9 2.6 7.1 3 10.5 1.1l6.1-3.6 6.2 10.7-6.1 3.5c-3.4 2-5.1 5.9-4.3 9.7z"/></svg><svg viewBox="0 0 512 512" id="i-support" xmlns="http://www.w3.org/2000/svg"><path d="M496 416h-16V200a48.051 48.051 0 0 0-48-48h-26.3a15.494 15.494 0 0 0-13.7-8h-8a40.04 40.04 0 0 0-40-40h-32a40.04 40.04 0 0 0-40 40h-8a16.019 16.019 0 0 0-13.84 8h-20.73A112.014 112.014 0 1 0 8 128a111.425 111.425 0 0 0 24 69.19V416H16a8 8 0 0 0-8 8v32a32.03 32.03 0 0 0 32 32h432a32.03 32.03 0 0 0 32-32v-32a8 8 0 0 0-8-8zM384 160h7.83a2.373 2.373 0 0 1 .17 1v23h-8zm0 48v-8h8c8.67 0 16-6.87 16-15v-17h24a32.03 32.03 0 0 1 32 32v216h-16V296a32.035 32.035 0 0 0-30.95-31.98L360 249.75v-5.1A40.06 40.06 0 0 0 384 208zm24 144v-24a8 8 0 0 0-16 0v88H264v-88a8 8 0 0 0-16 0v24h-24v-56a16.021 16.021 0 0 1 16-16 7.93 7.93 0 0 0 1.94-.24l57.04-14.26c5.91 8.98 19.34 14.5 29.02 14.5 5.91 0 13.34-2.22 19.39-5.8a29.017 29.017 0 0 0 9.62-8.7l57.05 14.26a7.93 7.93 0 0 0 1.94.24 16.021 16.021 0 0 1 16 16v56zm24 16v48h-24v-48zm-147.1 64l-2.67 8h-52.46l-2.67-8zM224 416v-48h24v48zm88-160v-8h32v7.98c-.28 2.07-8.66 8.02-16 8.02s-15.73-5.96-16-8zm-24-112a24.032 24.032 0 0 1 24-24h32a24.03 24.03 0 0 1 23.58 19.58c-18.38 8.86-57.91 11.72-79.58 12.3zm0 23.87c7.33-.2 18.94-.68 31.76-1.91 20.47-1.95 36.6-5.06 48.24-9.29V208a24.032 24.032 0 0 1-24 24h-32a23.937 23.937 0 0 1-17.87-8H320a8 8 0 0 0 0-16h-32zm-24-7.68c0-.06.01-.12.01-.19H272v24h-8zm0 39.81h8v8h-8zm-16-32v48a8 8 0 0 0 8 8h19.35A40.252 40.252 0 0 0 296 244.65v5.1l-57.05 14.27A32.035 32.035 0 0 0 208 296v120H48V213.72a111.922 111.922 0 0 0 123.57 13.72l25.02 11.8a8 8 0 0 0 11.24-8.89l-5.55-26.36A111.3 111.3 0 0 0 224.67 168zM24 128a96 96 0 1 1 187.5 29.2 6.456 6.456 0 0 0-.25.78 95.617 95.617 0 0 1-23.33 37.87 8.008 8.008 0 0 0-2.17 7.3l3.11 14.76-14.14-6.67a7.98 7.98 0 0 0-7.36.29A96.035 96.035 0 0 1 24 128zm464 328a16.021 16.021 0 0 1-16 16H40a16.021 16.021 0 0 1-16-16v-24h186.23l6.18 18.53A8 8 0 0 0 224 456h64a8 8 0 0 0 7.59-5.47l6.18-18.53H488z"/><path d="M144 440H64a8 8 0 0 0 0 16h80a8 8 0 0 0 0-16zM176 440h-8a8 8 0 0 0 0 16h8a8 8 0 0 0 0-16zM120 208a79.419 79.419 0 0 0 46.98-15.24v-.01a80 80 0 0 0 18.76-19.16 19.942 19.942 0 0 0-2.33-25.49l-17.27-17.27a20.014 20.014 0 0 0-28.28 0l-12.1 12.1c-.37.14-.74.27-1.13.39a16.013 16.013 0 0 1-19.95-19.95c.12-.39.25-.76.39-1.13l12.1-12.1a20.014 20.014 0 0 0 0-28.28L99.9 64.59a19.942 19.942 0 0 0-25.49-2.33 79.946 79.946 0 0 0-19.16 18.76h-.01A80.008 80.008 0 0 0 120 208zm29.17-65.86a4.008 4.008 0 0 1 5.66 0l17.27 17.27a3.968 3.968 0 0 1 .5 5.06 64.3 64.3 0 0 1-9.75 11.07L139.31 152zM83.53 75.4a3.968 3.968 0 0 1 5.06.5l17.27 17.27a4.008 4.008 0 0 1 0 5.66L96 108.69 72.46 85.15a64.3 64.3 0 0 1 11.07-9.75zM63.18 98.5l25.12 25.11a32.017 32.017 0 0 0 36.09 36.09l25.11 25.12A64.038 64.038 0 0 1 63.18 98.5z"/></svg><svg viewBox="0 0 499.5 488.2" id="i-theme" xmlns="http://www.w3.org/2000/svg"><path d="M395.3 273l-8.7 10.8c19.5 15.6 30.7 38.9 30.7 63.8 0 45.1-36.7 81.8-81.8 81.8s-81.8-36.7-81.8-81.8 36.7-81.8 81.8-81.8c13.2 0 25.8 3 37.5 9l6.4-12.4c-11.4-5.9-24.2-9.4-37.1-10.3-2.1-58.1-31.2-109.5-75.1-141.8 16.7-.8 39.8-5.1 55-20.3 25.6-25.6 19.7-73.4 19.5-75.5l-.6-5.2-5.3-.6c-2-.3-49.8-6.2-75.5 19.5-18.8 18.8-20.8 49.5-20.4 65.5-24.6-12.3-52.5-19.2-81.8-19.2v13.8c40.2 0 77.1 14 106.4 37.4-23.6 9.9-44.6 24.5-61.7 42.3l-57.4-57.4c11.6.6 27.1 3.3 36.8 13 5.8 5.8 9.8 14.4 11.8 25.6l13.7-2.5c-2.6-13.9-7.8-25-15.7-32.8-22-21.8-62.3-16.8-64-16.6l-5.3.6-.6 5.3c-.2 1.7-5.2 42.1 16.6 63.8 13.9 13.9 35.7 17 49.9 17.3-22.5 29.7-36 66.1-37.4 104.7-49.6 3.6-88.9 45-88.9 95.5 0 52.8 42.9 95.7 95.7 95.7 29.9 0 57.5-13.6 75.7-37.2l-11-8.5c-15.6 20.2-39.2 31.8-64.8 31.8-45.1 0-81.8-36.7-81.8-81.8s36.7-81.8 81.8-81.8 81.8 36.7 81.8 81.8c0 11.9-2.5 23.3-7.4 34l12.6 5.8c4.2-9 6.8-18.6 8-28.4 16.6 28.2 47.4 47.2 82.5 47.2 52.8 0 95.7-42.9 95.7-95.7 0-29-13.1-56.2-35.8-74.4zM148.4 157.3c-9.7-9.7-12.5-25.2-13-36.8l50 50c-11.7-.7-27.3-3.5-37-13.2zM270 38c13-13 34.3-15.8 48.7-16.2l-65 65c.4-14.5 3.4-35.9 16.3-48.8zm-6.5 58.5l65-65c-.4 14.4-3.2 35.7-16.1 48.6-13 13-34.4 16.1-48.9 16.4zm-23.1 239.7c-15.5-26.4-43.3-44.7-75.5-47 2.7-68.6 46.5-129.3 111-153.3 30.8 29.6 50.6 70.7 52.3 116.3-45.5 3.3-82.3 38.9-87.8 84z"/><path d="M401.5 347.6c0-36.4-29.6-66.1-66.1-66.1v13.8c28.8 0 52.2 23.4 52.2 52.2h13.9zM187.6 422.1h14.8v13.8h-14.8v-13.8zM172.7 436.8h14.8v13.8h-14.8v-13.8zM372.4 377.7h14.8v13.8h-14.8v-13.8zM357.6 392.4h14.8v13.8h-14.8v-13.8zM105.7 384.6c0-28.8 23.4-52.2 52.2-52.2v-13.8c-36.4 0-66.1 29.6-66.1 66.1h13.9z"/></svg><svg version="1.1" id="i-trophy" x="0" y="0" viewBox="0 0 420 512" xml:space="preserve" xmlns="http://www.w3.org/2000/svg"><style>.brst0{fill:#f94949}</style><path class="brst0" d="M230.8 452h-41.6c-5.5 0-10 4.5-10 10s4.5 10 10 10h41.6c5.5 0 10-4.5 10-10s-4.5-10-10-10z"/><path class="brst0" d="M410 80h-60V58.3c11.6-4.1 20-15.2 20-28.3 0-16.5-13.5-30-30-30H80C63.5 0 50 13.5 50 30c0 13 8.4 24.2 20 28.3V80H10C4.5 80 0 84.5 0 90v70c0 44.1 35.9 80 80 80h8.5c1.9 3.4 4 6.6 6.2 9.8 14.2 20.5 33.3 36.8 55.6 47.4-.1 1.2-.2 2.3-.2 3.5 0 14 9.7 25.8 22.7 29.1-12 40-33.4 82.2-58.7 82.2H90c-5 0-9.3 3.8-9.9 8.8l-10 80c-.4 2.8.5 5.7 2.4 7.9s4.6 3.4 7.5 3.4h260c2.9 0 5.6-1.2 7.5-3.4 1.9-2.1 2.8-5 2.4-7.9l-10-80c-.6-5-4.9-8.8-9.9-8.8h-24c-15.3 0-28.2-16.1-36.4-29.6-10.5-17.3-17.8-37.7-22.3-52.6 13-3.3 22.7-15.1 22.7-29.1 0-1.2-.1-2.4-.2-3.5 22.3-10.6 41.4-26.9 55.6-47.4 2.2-3.2 4.3-6.5 6.2-9.8h8.5c44.1 0 80-35.9 80-80V90c-.1-5.5-4.6-10-10.1-10zM20 160v-60h50v70.8c0 17 3.1 33.6 9 49.2-32.6-.6-59-27.3-59-60zm308.7 332H91.3l7.5-60h222.3l7.6 60zm-62.1-80H153.4c4.9-5.3 9.5-11.7 14-19.1 12.8-21.1 21.2-46 25.8-62.1h33.5c4.6 16.1 13 41 25.7 62 4.6 7.5 9.3 13.9 14.2 19.2zM240 310.8h-60c-5.5 0-10-4.5-10-10s4.5-10 10-10h60c5.5 0 10 4.5 10 10s-4.5 10-10 10zm20.9-31.5c-5.4-5.3-12.8-8.6-20.9-8.6h-60c-8.1 0-15.5 3.3-20.9 8.6C116.9 259.5 90 217.6 90 170.8V60h75c5.5 0 10-4.5 10-10s-4.5-10-10-10H80c-5.5 0-10-4.5-10-10s4.5-10 10-10h260c5.5 0 10 4.5 10 10s-4.5 10-10 10h-85c-5.5 0-10 4.5-10 10s4.5 10 10 10h75v110.8c0 46.8-26.9 88.7-69.1 108.5zM400 160c0 32.7-26.4 59.4-59 60 5.9-15.6 9-32.2 9-49.2V100h50v60z"/><path class="brst0" d="M261.1 130.4l-22.4-4-11.1-20.5c-1.9-3.4-4.7-6.2-8.1-8.1-4.7-2.5-10.1-3-15.2-1.5-5.1 1.6-9.3 5-11.8 9.7l-10.7 20.1-22.5 4.2c-4 .6-7.7 2.5-10.7 5.3-3.8 3.7-6 8.7-6.1 14-.1 5.3 1.9 10.4 5.6 14.2l15.8 16.4-2.9 22.1c-.8 4.2-.2 8.5 1.7 12.4 2.3 4.8 6.4 8.4 11.5 10.1 2.1.7 4.3 1.1 6.5 1.1 3 0 6-.7 8.7-2l20.5-10 21.1 10c3.5 1.7 7.4 2.3 11.3 1.7 5.3-.7 10-3.5 13.2-7.7 3.2-4.3 4.6-9.5 3.9-14.8l-3.2-22.6 15.5-16.3c3.1-3 5.1-6.7 5.8-10.9 1.7-10.6-5.6-21-16.4-22.9zm-3.9 20.1l-19 20c-2.1 2.2-3.1 5.3-2.6 8.3l3.8 27.3L214 194c-2.7-1.3-5.9-1.3-8.7 0l-24.8 12.1c0-.2.1-.5.1-.7l3.6-27.2c.4-3-.6-6.1-2.7-8.2l-19.2-19.8c.1 0 .2 0 .3-.1L190 145c3-.6 5.6-2.4 7-5.1l12.9-24.3 13.4 24.7c1.5 2.7 4 4.5 7 5.1l27.2 4.8-.3.3zM210 60c5.5 0 10-4.5 10-10s-4.5-10-10-10-10 4.5-10 10 4.5 10 10 10z"/></svg><svg viewBox="0 0 499.5 488.2" id="i-wild-symbol" xmlns="http://www.w3.org/2000/svg"><path d="M409.8 9.6l-5-5.1-277.6 277.7 10 10 202-202c59.9 67.1 58.4 171.1-6.8 236.2-65.4 65.4-169.4 66.5-236.2 6.8l31-31-10-10L10.5 398.8l5.1 5c109.3 107.1 284.1 106.1 392.2-2 108-108 109.1-282.9 2-392.2zm-12 382.2c-101 101-263.1 103.4-367 6.9l31.4-31.4c41.1 37.6 94.1 57.9 149.9 57.6 114.5-.7 205.4-87.4 217.4-195.6l-14.1-1.6c-11.5 103.6-98.8 183-204.7 183-51.7 0-100.6-18.9-138.5-53.4l14-14c35.9 32.3 80.9 48 125.9 47.7 102-.7 184.2-82.9 184.9-184.9.3-46.9-16.6-91.3-47.7-125.9l14-14C399 105.4 419 158.1 416.5 214l14.2.6c2.5-56.9-16.7-114.1-57.3-158.5l31.4-31.4c95.4 102.9 94.9 265.1-7 367.1z"/><path d="M212.1 260.4l10-10 10 10-10 10-10-10zM263.3 209.2l10-10 10 10-10 10-10-10zM207.9 307.3l10-10 10 10-10 10-10-10zM259.1 256.1l10-10 10 10-10 10-10-10zM310.3 205l10-10 10 10-10 10-10-10z"/></svg><svg viewBox="0 0 499.5 488.2" id="i-year-launched" xmlns="http://www.w3.org/2000/svg"><path d="M259.3 233.2c-3.4-3.4-8.9-3.4-12.4 0-3.4 3.4-3.4 8.9 0 12.4 3.4 3.4 8.9 3.4 12.4 0s3.4-9 0-12.4zM370.9 121.5c-17.1-17.1-44.9-17.1-62 0s-17.1 44.9 0 62 44.9 17.1 62 0c17.2-17.2 17.2-44.9 0-62zm-12.4 49.6c-10.3 10.3-26.9 10.3-37.2 0-10.3-10.3-10.3-26.9 0-37.2 10.3-10.3 26.9-10.3 37.2 0 10.3 10.2 10.3 26.9 0 37.2z"/><path d="M470.2 22.2c-1.8-1.8-4-2.6-6.5-2.5-2 .1-49.2 1.9-105.4 21.8-45 15.9-82.5 38.6-111.4 67.5-6.5 6.5-12.8 13.3-18.9 20.5-28.6-16.8-51.6-11.6-66.1-3.8-33.5 17.9-54.2 66.4-54.2 101.1 0 3.5 2.1 6.8 5.4 8.1 1.1.4 2.2.7 3.3.7 2.3 0 4.6-.9 6.2-2.5 17.6-17.6 39.4-16.5 46.4-15.6l3.1 3.1c-6.1 14.4-10.9 28.7-14.5 42.6-1.3 5-.9 10.4 1.1 15.3-8.4 3.9-16.6 9.6-23.7 16.7-22.5 22.5-27.2 77.6-27.4 79.9-.2 2.5.7 5.1 2.5 6.9 1.7 1.7 3.9 2.5 6.2 2.5h.7c2.4-.2 57.4-4.7 79.9-27.4 7.1-7.1 12.8-15.3 16.7-23.7 5.2 2 10.4 2.3 15.3 1.1 13.9-3.6 28.2-8.4 42.6-14.5l3.1 3.1c1 7.1 2 28.9-15.6 46.4-2.5 2.5-3.2 6.3-1.9 9.6s4.6 5.4 8.1 5.4c34.7 0 83.2-20.7 101.1-54.1 7.8-14.5 13.1-37.5-3.8-66.1 7.1-6.1 14-12.4 20.5-18.9 28.9-28.9 51.7-66.5 67.5-111.4 20.1-56 22-103.2 22.1-105.2.2-2.5-.8-4.8-2.4-6.6zM127.4 208.1c5.4-26.4 21.3-55.4 42.7-66.8 14.4-7.7 30-6.9 46.8 2.2-14.2 18.7-26.6 38.9-36.8 60.1-.1-.1-1.7-2.1-4.6-2.7-1.3-.4-24.6-5.4-48.1 7.2zm57.4 136.7c-12.1 12.1-40.4 18.4-58.2 21.1 2.6-17.9 8.9-46.1 21.1-58.2 6.8-6.8 14.6-11.8 22.5-14.7l29.6 29.6c-3.2 7.6-8.2 15.4-15 22.2zm40-27.2c-2.5.6-5.4-.3-7.6-2.5L200 297.9l-22.6-22.6c-2.2-2.2-3.2-5.2-2.5-7.6 2.8-11 6.5-22.2 11-33.5l72.5 72.5c-11.4 4.4-22.6 8.1-33.6 10.9zm126.3 4.6c-11.5 21.5-40.4 37.3-66.8 42.7 8.4-15.8 10.3-36 7.2-48.2-.7-2.8-2.5-4.3-2.6-4.5 21.2-10.3 41.4-22.6 60.1-36.8 9 16.8 9.8 32.4 2.1 46.8zm19.8-89c-7.9 7.9-16.4 15.5-25.3 22.7-21.3 17.2-44.8 31.8-69.9 43.3l-82.5-82.5c11.6-25.1 26.1-48.6 43.3-69.9 7.2-8.9 14.8-17.4 22.7-25.3 26-26 59.6-46.7 99.7-61.6l73.5 73.5c-14.9 40.2-35.5 73.7-61.5 99.8zm67.9-118.3l-61.3-61.3C410.9 43.2 440 39.3 454.4 38c-1.3 14.5-5.3 43.5-15.6 76.9z"/><path d="M234.5 381.9c-3.4-3.4-8.9-3.4-12.4 0l-24.8 24.8c-3.4 3.4-3.4 8.9 0 12.4 3.4 3.4 8.9 3.4 12.4 0l24.8-24.8c3.4-3.3 3.4-8.8 0-12.4zM110.4 257.9c-3.4-3.4-8.9-3.4-12.4 0l-24.8 24.8c-3.4 3.4-3.4 8.9 0 12.4 3.4 3.4 8.9 3.4 12.4 0l24.8-24.7c3.4-3.5 3.4-9.1 0-12.5zM172.4 394.4c-3.4-3.4-8.9-3.4-12.4 0l-59.4 59.4c-3.4 3.4-3.4 8.9 0 12.4 3.4 3.4 8.9 3.4 12.4 0l59.4-59.4c3.5-3.4 3.5-9 0-12.4zM102.3 394.4c-3.4-3.4-8.9-3.4-12.4 0l-59.5 59.4c-3.4 3.4-3.4 8.9 0 12.4 3.4 3.4 8.9 3.4 12.4 0l59.4-59.4c3.5-3.4 3.5-9 .1-12.4zM98 319.9c-3.4-3.4-8.9-3.4-12.4 0l-59.5 59.5c-3.4 3.4-3.4 8.9 0 12.4 3.4 3.4 8.9 3.4 12.4 0l59.4-59.4c3.5-3.4 3.5-9 .1-12.5zM296.5 195.9c-3.4-3.4-8.9-3.4-12.4 0l-12.4 12.4c-3.4 3.4-3.4 8.9 0 12.4 3.4 3.4 8.9 3.4 12.4 0l12.4-12.4c3.4-3.4 3.4-9 0-12.4z"/></svg><svg version="1.1" id="i-youtube" x="0" y="0" viewBox="0 0 131.5 53.4" xml:space="preserve" xmlns="http://www.w3.org/2000/svg"><style>.bust0{fill:#ff5f5f}</style><path class="bust0" d="M130.1 8.6c-.9-4.1-4.3-7.1-8.3-7.5C112.4 0 102.8 0 93.2 0 83.6 0 74 0 64.5 1.1c-4 .4-7.3 3.5-8.3 7.5-1.3 5.8-1.4 12.1-1.4 18.1s0 12.3 1.3 18.1c.9 4.1 4.3 7.1 8.3 7.5 9.5 1.1 19.1 1.1 28.7 1.1 9.6 0 19.2 0 28.7-1.1 4-.4 7.3-3.5 8.3-7.5 1.3-5.8 1.3-12.1 1.3-18.1.1-6 .1-12.3-1.3-18.1zm-53.3 4.5h-5.5v29.4h-5.1V13.1h-5.4V8.3h16.1v4.8zm13.9 29.4h-4.6v-2.8c-1.8 2.1-3.6 3.1-5.3 3.1-1.5 0-2.5-.6-3-1.9-.3-.8-.4-2-.4-3.8V17H82v20.6c.1.7.5 1.1 1.1 1.1.9 0 1.9-.7 2.9-2.2V17h4.6l.1 25.5zm17.6-7.6c0 2.4-.2 4.1-.5 5.1-.6 1.9-1.9 2.9-3.7 2.9-1.6 0-3.2-.9-4.8-2.8v2.5h-4.6V8.3h4.6v11.2c1.5-1.8 3.1-2.8 4.8-2.8 1.8 0 3.1 1 3.7 2.9.3 1 .5 2.7.5 5.1v10.2zm17.5-4.3h-9.3v4.5c0 2.4.8 3.5 2.4 3.5 1.1 0 1.8-.6 2.1-1.9 0-.3.1-1.3.1-3.1h4.7v.7c0 1.5-.1 2.5-.1 3-.2 1-.5 2-1.1 2.8-1.3 1.9-3.2 2.8-5.6 2.8-2.4 0-4.3-.9-5.6-2.6-1-1.3-1.5-3.3-1.5-6v-8.9c0-2.7.4-4.7 1.4-6 1.3-1.7 3.2-2.6 5.5-2.6s4.2.9 5.5 2.6c1 1.3 1.4 3.3 1.4 6l.1 5.2z"/><path class="bust0" d="M118.8 20.8c-1.5 0-2.3 1.2-2.3 3.5v2.4h4.6v-2.4c0-2.3-.7-3.5-2.3-3.5zM101.7 20.8c-.8 0-1.5.4-2.3 1.1v15.6c.8.8 1.5 1.1 2.3 1.1 1.3 0 2-1.1 2-3.4V24.3c0-2.3-.7-3.5-2-3.5zM38.9 43.1c1.7 0 3.5-1 5.3-3.2v2.8h4.7V17h-4.7v19.7c-1 1.5-2 2.2-2.9 2.2-.6 0-1-.4-1.1-1.1-.1-.2-.1-.7-.1-1.8V17h-4.6v20.3c0 1.8.2 3 .4 3.8.5 1.4 1.5 2 3 2zM6.5 28.8v14h5.2v-14l6.2-20.5h-5.2L9.1 21.8 5.4 8.3H0l3.3 9.6C5 22.7 6 26.3 6.5 28.8zM24.8 43.1c2.3 0 4.2-.9 5.4-2.6 1-1.3 1.4-3.3 1.4-6.1v-9c0-2.8-.5-4.8-1.4-6.1-1.3-1.8-3.1-2.6-5.4-2.6-2.3 0-4.1.9-5.4 2.6-1 1.3-1.5 3.3-1.5 6.1v9c0 2.7.5 4.8 1.5 6.1 1.3 1.8 3.1 2.6 5.4 2.6zm-2.2-18.6c0-2.4.7-3.6 2.2-3.6s2.2 1.2 2.2 3.6v10.8c0 2.4-.7 3.6-2.2 3.6s-2.2-1.2-2.2-3.6V24.5z"/></svg></svg>